<svg version="1.1" id="option_cam_svg" class="option_svg" xmlns="http://www.w3.org/2000/svg" xmlns:xlink="http://www.w3.org/1999/xlink" x="0px" y="0px"
									width="58px" height="58px" viewBox="0 0 351.553 351.552" style="enable-background:new 0 0 351.553 351.552;"
									xml:space="preserve">
									<path d="M350.076,91.588c0-2.448-1.836-3.672-3.672-3.672c0.611-1.836-0.612-4.896-3.672-4.896
									c-75.89-6.732-154.226-10.404-231.335-9.792c0.612-2.448,1.224-5.508,0.612-8.568c0-1.836-1.224-3.06-3.672-3.672
									c-4.896-0.612-9.792-1.224-14.076-1.836c-3.672-0.612-7.956-1.224-11.016,1.836s-3.06,7.956-1.836,12.24
									c-4.896,0-9.792,0-14.688,0h0.612c1.224-0.612,2.448-1.224,2.448-2.448c4.284-17.748-25.704-14.076-34.884-14.076
									c-6.732,0-14.688,0.612-17.136,7.956c-1.836,3.672-0.612,7.956,2.448,10.404c-4.284,0-8.568,0-12.852,0.612
									c-1.836,0-2.448,1.224-2.448,2.448c-1.836,0-3.672,0.612-3.672,3.06c-2.448,41.616-0.612,83.844,0,125.459
									c0,20.195,0,39.779,0.612,59.977c0,9.182-2.448,17.137,4.284,23.256c0.612,0.611,1.224,0.611,2.448,0.611
									c0,1.225,0.612,1.838,2.448,1.838c48.96,4.283,97.92,2.447,147.492,2.447c3.06,0,6.732,0,9.792,0c1.224,0,2.448,0,4.284,0
									c53.855,0.611,107.711,0,160.956-4.285c1.836,0,3.061-1.836,3.061-3.059c1.836,1.223,4.896,1.223,5.508-1.225
									C353.137,221.944,352.524,157.072,350.076,91.588z M91.812,65.271c4.284,0.612,9.18,1.224,13.464,1.836
									c0,1.836-0.612,3.672-1.224,5.508c-6.12,0-11.628,0-17.748,0c-0.612-1.224-0.612-2.448-0.612-3.672
									C86.916,65.271,88.753,65.271,91.812,65.271z M33.673,64.048c1.836,0,3.672,0,5.508,0c3.06,0,6.12,0,8.568,0
									c5.508,0,16.524-1.836,15.912,6.12c0,1.224,0.612,2.448,1.836,2.448c-12.852,0-25.704,0.612-38.556,1.224
									c0.612-1.224,0-2.448-1.224-3.672C26.329,65.271,28.777,63.436,33.673,64.048z M58.765,287.428L58.765,287.428
									c0-3.062,0-5.51,0-7.957c0-3.061-4.896-3.061-4.896,0c0,2.447,0,4.896,0,7.957c0,0,0,0,0,0.611c-6.12,0-12.852,0-18.972,0
									c-0.612-4.285-1.224-8.568-1.224-12.854c0-2.447-3.06-2.447-3.672-0.611c-1.224,4.283-1.224,9.18,0.612,13.465
									c-5.508,0-11.628,0-17.136,0.611c0-1.225,0-2.447-1.224-2.447c-3.672-1.225-0.612-94.248-0.612-102.816
									c0-11.627,0-23.255,0-34.271c2.448,0,5.508,0.612,7.956,0.612c-1.224,3.06-0.612,6.732,1.224,9.18
									c1.836,1.836,4.896,0,3.672-1.836c-1.224-2.448-1.224-4.284-1.224-6.732l0,0c16.524,1.224,33.048,1.836,50.184,1.836
									c0,0,0,0,0,0.612c-1.224,5.508-1.224,10.404,0.612,15.3c1.224,3.672,6.732,2.448,5.508-1.836
									c-1.224-4.284-1.836-8.568-1.224-13.464c0-0.612,0-0.612,0-1.224c9.18,0,18.972,0,28.152-0.612
									c-4.896,5.508-9.18,11.016-12.24,17.748c0.612-3.06,0.612-6.732,0.612-9.792c0-1.836-3.06-2.448-3.672-0.612
									c-1.836,5.508-1.836,10.404-1.836,15.912c0,1.225,0.612,1.836,1.224,1.836c-1.836,4.285-3.672,8.568-4.896,13.463
									c-4.896,18.973-3.672,37.943,2.448,54.469c-0.612,0-1.836,0.611-1.836,1.836c-0.612,3.672,0,7.344,0,11.018
									c0,1.836,2.448,1.836,3.06,0c0-2.449,0-5.51,0-7.957c7.344,17.748,21.42,32.438,39.78,40.393
									C105.277,288.04,82.02,287.428,58.765,287.428z M147.505,141.16c1.224,1.836,2.448,3.06,3.672,4.896
									c-4.896,2.448-9.792,5.508-14.688,9.18c-4.896-3.06-9.792-6.12-14.076-9.792c6.12-4.284,12.852-7.956,20.196-10.404
									C144.445,136.875,145.669,139.324,147.505,141.16z M146.893,133.203c6.12-1.836,12.24-3.06,18.972-4.284c0,0,0,0,0,0.612
									c1.224,3.672,1.836,7.344,3.06,11.016c-4.284,0.612-8.568,1.836-12.852,3.672c-1.224-1.836-3.06-3.672-4.284-5.508
									C149.953,136.875,148.117,135.039,146.893,133.203z M132.205,158.908c-4.896,4.284-9.18,9.792-12.852,15.3l0,0
									c-4.284-4.284-10.404-6.732-16.524-8.568c4.284-6.732,9.792-12.24,15.3-17.136C123.025,152.176,127.309,155.847,132.205,158.908z
									M110.785,198.688c-0.612,6.119-0.612,12.852,0,18.973c-6.12,0-12.852,0.611-18.972,0.611c-3.06,0-3.06,4.283,0,4.283
									c6.732,0,13.464,0.611,20.196,0.611c1.224,4.283,2.448,8.568,4.284,12.854c-6.12,1.836-12.24,4.283-18.972,5.508
									c-2.448,0.611-1.224,4.283,1.224,4.283c6.732-1.225,13.464-2.447,19.584-5.508c1.836,3.061,3.672,6.119,6.12,8.568
									c-5.508,4.895-10.404,10.402-15.3,15.91c-17.136-17.748-23.868-44.676-17.748-70.99
									C97.933,195.627,104.053,198.077,110.785,198.688z M92.425,189.506c0-1.225,0.612-1.836,0.612-3.061
									c1.836-6.119,4.896-12.239,7.956-17.747c2.448,1.224,4.896,2.448,7.344,3.672c3.06,1.836,5.508,3.672,9.18,4.896l0,0
									c-2.448,4.896-4.896,10.404-6.12,16.523v0.611C105.277,192.567,99.157,190.731,92.425,189.506z M111.397,266.62
									c5.508-4.896,10.404-9.793,15.3-15.301c4.284,4.283,9.18,8.568,14.688,11.627c-3.672,5.51-5.508,11.629-7.344,17.748
									C125.473,278.247,117.517,272.739,111.397,266.62z M156.073,275.799c0,3.672-0.612,6.73-1.224,10.404c-0.612,0-1.224,0-1.836,0
									c-5.508-0.613-10.404-1.838-14.688-3.061c1.836-5.508,4.896-11.629,6.732-17.137c3.672,1.836,7.344,3.061,11.016,4.283
									C156.073,271.516,156.073,273.352,156.073,275.799z M154.849,259.887c-31.212-9.791-42.84-47.123-29.988-75.275
									c9.792-20.808,27.54-31.212,48.348-36.72c0.612,0,1.224,0,1.224-0.612c2.448-0.612,4.896-1.224,6.731-1.836
									c0.612,0.612,1.225,1.836,2.448,1.836c33.66,7.956,59.363,36.721,47.735,72.828C221.557,251.932,186.062,269.68,154.849,259.887z
									M170.149,128.307c7.957-0.612,16.523-0.612,25.091,0c-1.225,4.284-2.448,8.568-1.836,12.852c-0.612,0-1.225,0-1.225,0l0,0
									c-5.509-1.224-11.017-1.224-17.136-1.224C173.821,135.652,171.373,131.979,170.149,128.307z M227.676,247.036
									c3.062-3.674,6.12-7.957,8.568-12.24c4.896,1.836,9.792,3.672,15.3,4.895c-3.672,5.508-7.956,11.018-12.852,15.912
									C236.244,251.319,231.96,248.872,227.676,247.036z M235.021,258.663c-4.284,3.672-8.568,6.732-12.854,9.793
									c-1.224-1.225-3.06-2.449-4.284-4.285c-1.224-1.225-3.06-3.061-4.283-4.896c3.673-2.447,7.345-5.508,10.403-8.566
									c1.226,0.611,3.062,1.836,4.284,2.447C230.736,254.991,232.572,257.44,235.021,258.663z M239.305,229.288
									c1.836-4.285,3.061-8.568,4.283-12.854c0-1.225,0-1.836,0.612-3.061c1.836,0,3.672,0,5.508,0.611
									c4.284,0.613,8.568,1.836,12.853,1.836c-1.225,5.51-3.672,11.018-6.119,16.525c-0.612,0.611-0.612,1.223-1.226,2.447
									C250.32,231.735,244.812,230.512,239.305,229.288z M244.2,207.868c0.611-6.73,0-12.852-1.225-18.973
									c6.731-2.447,13.465-4.283,20.809-6.73c1.836,8.566,1.836,18.359,0,27.539c0,0,0,0-0.612,0
									C257.664,207.868,250.933,207.868,244.2,207.868z M241.141,182.776c-1.836-5.508-4.283-10.404-7.345-14.688l0,0
									c3.062-1.836,6.732-3.672,10.404-5.508c3.06-1.224,6.731-2.448,9.792-4.284c3.672,6.12,6.731,12.24,8.567,18.972
									C254.604,176.655,247.872,179.104,241.141,182.776z M231.349,163.804C230.736,163.804,230.736,163.804,231.349,163.804
									c-2.447-2.448-4.283-5.508-6.731-7.344c0.612,0,1.224,0,1.836-0.612c3.061-2.448,5.508-4.896,8.568-7.344
									c1.836-1.836,4.283-3.672,6.119-5.508c3.673,3.06,6.731,6.12,9.792,9.792C242.977,154.623,236.244,159.52,231.349,163.804z
									M229.513,142.995c-3.061,2.448-5.509,5.508-8.567,7.956c-0.612,0.612-0.612,1.224-0.612,1.836
									c-1.836-1.224-3.06-2.448-4.896-3.672v-0.612c0-3.672,1.224-6.732,3.06-9.792c1.225-2.448,3.061-4.896,4.284-7.344
									c4.284,1.836,8.567,4.284,12.24,6.732C233.185,139.936,231.349,141.771,229.513,142.995z M209.928,146.667
									c-3.672-1.836-7.344-3.06-11.016-4.284c0.612-4.896,2.448-9.792,4.896-14.688c0,0,0,0,0-0.612
									c4.283,0.612,8.567,1.224,12.853,2.448C211.765,133.815,209.928,140.548,209.928,146.667z M159.745,286.204
									c1.224-4.896,2.448-10.404,1.836-15.301h0.612c6.12,1.225,12.24,1.225,17.749,0.611c0.611,4.283,0.611,8.568,1.836,12.24
									C174.433,285.59,167.089,286.204,159.745,286.204z M186.672,283.143c0-2.447-0.61-4.283-1.224-6.73
									c-0.612-1.836-0.612-3.674-1.225-5.51c3.673-0.611,6.731-1.223,10.403-2.447c0.612,1.836,1.225,3.672,1.836,6.121
									c0.612,1.836,1.226,3.672,1.226,5.508C194.628,281.307,190.956,281.918,186.672,283.143z M201.36,273.352
									c-0.612-1.836-1.225-4.285-2.448-6.121c3.672-1.225,7.344-3.061,10.404-4.895c1.836,3.061,4.283,6.73,7.344,9.18
									c-4.284,2.447-9.18,4.896-14.076,6.732C202.584,276.411,201.973,274.577,201.36,273.352z M336,284.979
									c-0.611-0.611-1.224-0.611-2.448-0.611c-16.522,0-33.048,0.611-48.96,1.225c0.612-0.611,0.612-1.225,0-2.447
									c-1.836-1.836-1.836-4.896-0.61-7.346c0.61-1.836-1.226-3.672-3.062-1.836c-3.672,3.061-3.672,7.957-0.611,11.629
									c-4.283,0-7.955,0-12.239,0.611c1.224,0,1.836-0.611,2.447-1.836c0.611-1.836-1.225-3.672-3.061-2.447c0,0,0,0,0-0.611
									c0-0.613,0-1.225,0-1.836c0-0.613,0.612-1.838,0.612-2.449c0-1.836-0.612-3.061-1.836-4.895
									c-1.836-1.836-4.896,0.611-3.673,2.447c1.225,1.836-0.611,4.283,0,6.119c0,1.225,0.611,2.449,1.837,3.674
									c0.61,0.611,1.836,1.223,3.06,1.223c-20.808,0.613-41.616,1.225-62.424,1.836c16.523-6.119,31.212-15.91,42.84-28.15
									c0,0-0.612,0.611-0.612,1.225c-1.224,5.508,0,10.402,3.673,14.688c1.836,1.836,4.283-0.611,3.061-2.449
									c-1.836-3.061-3.061-7.344-2.448-11.016c0.612-2.447-3.06-3.672-4.284-2.447c13.465-13.465,22.646-30.602,25.704-50.186
									c3.062-19.584-0.61-39.167-10.402-54.468c7.344,2.448,17.136,1.224,23.256,1.224c17.748,0.612,36.72,1.224,54.468-2.448
									C340.896,196.852,337.836,240.915,336,284.979z M342.12,146.667c-13.464-1.224-27.54,0-41.616,0.612
									c-9.792,0-31.823,3.672-40.392-1.836c-1.225-0.612-1.836-0.612-2.448,0c-14.688-17.748-37.332-28.764-64.26-24.48
									c-0.612,0-1.225,0.612-1.225,0.612c-31.212-7.344-62.424,3.672-83.844,25.704c0-1.224-1.224-2.448-2.448-2.448
									c-31.212-3.06-63.648-3.06-94.86-1.836c0-20.808-0.612-42.228-1.836-63.036c0,0,0,0,0-0.612
									c110.772,5.508,222.767,7.956,333.541,9.792c0,0.612,0,1.224,0,1.836C342.12,109.948,342.12,128.307,342.12,146.667z"/>
									<path d="M323.148,124.636c2.447-7.344,3.672-21.42-2.448-25.092c-4.896-2.448-14.076-0.612-19.584-0.612
									c-8.568,0-17.136,0-25.704,0.612c-2.448,0-4.284,1.836-4.896,4.896c0,7.344,0.611,15.3,1.836,22.644
									c0.611,2.448,3.061,3.06,4.896,2.448c0,0.612,0.612,0.612,1.225,1.224c12.239,3.06,31.823,6.12,43.451,0.612
									C325.597,129.532,325.597,125.86,323.148,124.636z M300.504,125.86c-6.73,0.612-13.464,0-20.195,0v-0.612
									c-1.225-5.508-1.225-10.404-0.611-15.912c10.403,0,20.195,0,30.6-1.224c0.612,0,5.509-1.224,5.509-1.224
									c0.611,0.612,0,6.732,0,7.956c0,3.06,0,6.12,1.225,9.18C311.521,124.023,306.013,125.247,300.504,125.86z"/>
									</svg>