<?xml version="1.0" encoding="utf-8"?>
<!-- Generator: Adobe Illustrator 22.0.1, SVG Export Plug-In . SVG Version: 6.00 Build 0)  -->
<svg version="1.1" id="Layer_1" xmlns="http://www.w3.org/2000/svg" xmlns:xlink="http://www.w3.org/1999/xlink" x="0px" y="0px"
	 viewBox="0 0 1250 1250" style="enable-background:new 0 0 1250 1250;" xml:space="preserve">
<style type="text/css">
	.st0{fill:none;stroke:#FC6A84;stroke-width:5;}
	.st1{fill:#FC6A84;stroke:#FC6A84;stroke-width:5;}
	.st2{fill:#FFFFFF;}
	.st3{font-family:'ArialMT';}
	.st4{font-size:44.5476px;}
	.st5{fill:#FDA1B2;stroke:#000000;stroke-width:5;}
	.st6{fill:none;stroke:#000000;stroke-width:5;}
</style>
<line class="st0" x1="906.5" y1="924.8" x2="875.5" y2="924.8"/>
<line class="st0" x1="317.8" y1="434.7" x2="289.9" y2="434.7"/>
<line class="st0" x1="879.6" y1="924.8" x2="260.6" y2="434.7"/>
<line class="st0" x1="879.6" y1="924.8" x2="889.5" y2="934.6"/>
<line class="st0" x1="879.6" y1="924.8" x2="889.5" y2="914.9"/>
<line class="st0" x1="303.8" y1="434.7" x2="313.7" y2="444.6"/>
<line class="st0" x1="303.8" y1="434.7" x2="313.7" y2="424.9"/>
<line class="st0" x1="1197.6" y1="1036.1" x2="1225.4" y2="1036.1"/>
<line class="st0" x1="1222.6" y1="532.2" x2="1194.8" y2="532.2"/>
<line class="st0" x1="1225.4" y1="1036.1" x2="1222.6" y2="532.2"/>
<line class="st0" x1="1218.4" y1="1036.1" x2="1208.6" y2="1046"/>
<line class="st0" x1="1218.4" y1="1036.1" x2="1208.6" y2="1026.3"/>
<line class="st0" x1="1208.7" y1="532.2" x2="1218.5" y2="542"/>
<line class="st0" x1="1208.7" y1="532.2" x2="1218.5" y2="522.3"/>
<line class="st0" x1="944.2" y1="587.9" x2="916.4" y2="587.9"/>
<line class="st0" x1="317.8" y1="434.7" x2="289.9" y2="434.7"/>
<line class="st0" x1="916.4" y1="587.9" x2="317.8" y2="434.7"/>
<line class="st0" x1="923.3" y1="587.9" x2="933.2" y2="597.7"/>
<line class="st0" x1="923.3" y1="587.9" x2="933.2" y2="578"/>
<line class="st0" x1="303.8" y1="434.7" x2="313.7" y2="444.6"/>
<line class="st0" x1="303.8" y1="434.7" x2="313.7" y2="424.9"/>
<line class="st0" x1="995.2" y1="270.5" x2="967.3" y2="270.5"/>
<line class="st0" x1="317.8" y1="434.7" x2="289.9" y2="434.7"/>
<line class="st0" x1="967.3" y1="270.5" x2="279.6" y2="434.7"/>
<line class="st0" x1="974.3" y1="270.5" x2="984.1" y2="280.3"/>
<line class="st0" x1="974.3" y1="270.5" x2="984.1" y2="260.6"/>
<line class="st0" x1="303.8" y1="434.7" x2="313.7" y2="444.6"/>
<line class="st0" x1="303.8" y1="434.7" x2="313.7" y2="424.9"/>
<line class="st0" x1="1192.9" y1="326.2" x2="1220.7" y2="326.2"/>
<line class="st0" x1="1222.6" y1="532.2" x2="1194.8" y2="532.2"/>
<line class="st0" x1="1220.7" y1="326.2" x2="1217.9" y2="532.2"/>
<line class="st0" x1="1213.7" y1="326.2" x2="1203.9" y2="336"/>
<line class="st0" x1="1213.7" y1="326.2" x2="1203.9" y2="316.3"/>
<line class="st0" x1="1208.7" y1="532.2" x2="1218.5" y2="542"/>
<line class="st0" x1="1208.7" y1="532.2" x2="1218.5" y2="522.3"/>
<rect x="906.5" y="785.6" class="st1" width="288.3" height="55.7"/>
<text transform="matrix(1 0 0 1 914.4297 824.5352)" class="st2 st3 st4">comments</text>
<rect x="906.5" y="841.2" class="st5" width="288.3" height="55.7"/>
<text transform="matrix(1 0 0 1 914.4297 880.2188)" class="st3 st4">comment_id</text>
<rect x="906.5" y="896.9" class="st6" width="288.3" height="55.7"/>
<text transform="matrix(1 0 0 1 914.4297 935.9062)" class="st3 st4">user_id</text>
<rect x="906.5" y="952.6" class="st6" width="288.3" height="55.7"/>
<text transform="matrix(1 0 0 1 914.4297 991.5898)" class="st3 st4">comment</text>
<rect x="906.5" y="1008.3" class="st6" width="288.3" height="55.7"/>
<text transform="matrix(1 0 0 1 914.4297 1047.2773)" class="st3 st4">image_id</text>
<rect x="906.5" y="1064" class="st6" width="288.3" height="55.7"/>
<text transform="matrix(1 0 0 1 914.4297 1102.9609)" class="st3 st4">date_added</text>
<rect x="944.2" y="448.7" class="st1" width="250.6" height="55.7"/>
<text transform="matrix(1 0 0 1 958.125 487.6445)" class="st2 st3 st4">images</text>
<rect x="944.2" y="504.3" class="st5" width="250.6" height="55.7"/>
<text transform="matrix(1 0 0 1 958.125 543.3281)" class="st3 st4">image_id</text>
<rect x="944.2" y="560" class="st6" width="250.6" height="55.7"/>
<text transform="matrix(1 0 0 1 958.125 599.0156)" class="st3 st4">user_id</text>
<rect x="944.2" y="615.7" class="st6" width="250.6" height="55.7"/>
<text transform="matrix(1 0 0 1 958.125 654.6992)" class="st3 st4">content</text>
<rect x="944.2" y="671.4" class="st6" width="250.6" height="55.7"/>
<text transform="matrix(1 0 0 1 958.125 710.3828)" class="st3 st4">date_added</text>
<rect x="995.2" y="131.3" class="st1" width="197.7" height="55.7"/>
<text transform="matrix(1 0 0 1 1009.0938 170.2422)" class="st2 st3 st4">likes</text>
<rect x="995.2" y="186.9" class="st5" width="197.7" height="55.7"/>
<text transform="matrix(1 0 0 1 1009.0938 225.9297)" class="st3 st4">like_id</text>
<rect x="995.2" y="242.6" class="st6" width="197.7" height="55.7"/>
<text transform="matrix(1 0 0 1 1009.0938 281.6133)" class="st3 st4">user_id</text>
<rect x="995.2" y="298.3" class="st6" width="197.7" height="55.7"/>
<text transform="matrix(1 0 0 1 1009.0938 337.2969)" class="st3 st4">image_id</text>
<rect x="25.4" y="351.2" class="st1" width="264.5" height="55.7"/>
<text transform="matrix(1 0 0 1 39.332 390.1992)" class="st2 st3 st4">users</text>
<rect x="25.4" y="406.9" class="st5" width="264.5" height="55.7"/>
<text transform="matrix(1 0 0 1 39.332 445.8828)" class="st3 st4">user_id</text>
<rect x="25.4" y="462.6" class="st6" width="264.5" height="55.7"/>
<text transform="matrix(1 0 0 1 39.332 501.5703)" class="st3 st4">user_name</text>
<rect x="25.4" y="518.3" class="st6" width="264.5" height="55.7"/>
<text transform="matrix(1 0 0 1 39.332 557.25)" class="st3 st4">email</text>
<rect x="25.4" y="574" class="st6" width="264.5" height="55.7"/>
<text transform="matrix(1 0 0 1 39.332 612.9336)" class="st3 st4">password</text>
<rect x="25.4" y="629.6" class="st6" width="264.5" height="55.7"/>
<text transform="matrix(1 0 0 1 39.332 668.6211)" class="st3 st4">token</text>
<rect x="25.4" y="685.3" class="st6" width="264.5" height="55.7"/>
<text transform="matrix(1 0 0 1 39.332 724.3047)" class="st3 st4">activated</text>
<rect x="25.4" y="741" class="st6" width="264.5" height="55.7"/>
<text transform="matrix(1 0 0 1 39.332 779.9883)" class="st3 st4">notifications</text>
</svg>
