<svg xmlns="http://www.w3.org/2000/svg" viewBox="0 0 1867 1098.13">
  <title>UML</title>
  <g>
    <path d="M1160.8,14.3c-9.7,7.8-20.7,16.8-24.6,19.9l-6.9,5.8h-60.8c-53.6,0-60.6-.2-60.1-1.5.7-1.9-.7-1.9-4.4,0l-3,1.6V20H960.5c-26.2,0-40.5.4-40.6,1s-.2,9.5-.3,20l-.1,19H960v78.6c0,69.5-.2,78.5-1.5,78-1.9-.7-1.9.7,0,4.4l1.5,3-20.2.2-20.3.3V243c-.1,10.2.1,19.1.3,19.7.3,1,5.3,1.3,20.3,1.3H960V368.2c.1,110.4-.1,106.1,4.7,108.6,1.6.9,45.8,1.2,176.2,1.2,154.3,0,174,.2,173.5,1.5-.8,1.9,0,1.9,3.6,0,2.9-1.5,3-1.5,3,.9a9.39,9.39,0,0,0,1.9,4.7l1.9,2.4H1379v8c0,4.4.3,17.8.7,29.8.5,18.8.4,21.8-.8,21.5-2.1-.4-2.2.8-.4,4.2l1.6,3H1341v40h39v30.1c0,26.4-.2,30-1.5,29.5-1.9-.7-1.9.7-.1,4.2,1.6,3.1,4.1.8-29.6,27.9L1331.2,700h-136l.6-2.2.5-2.2-3.6,2.3-3.6,2.2-.3-9.8-.3-9.8-38.7-.3L1111,680v20h-82.5c-71.2,0-82.5-.2-82.3-1.4.4-1.9-.6-2-4.2-.1l-3,1.6v-8c0-13.2,5.2-12.1-57.5-12.1S824,678.9,824,692v8H688.2l.5-2.1c.6-2,.5-2.1-2.5-.5a16.08,16.08,0,0,1-3.7,1.6c-.3,0-.5-8.6-.5-19V661H662V610.6c0-27.7-.3-51.2-.6-52.1-1.7-4.3-4-4.5-50.8-4.5-39.2,0-44.5-.2-44-1.5.8-1.9-.9-1.9-4.6,0l-3,1.6V535H479v19H291.8l-2.9,2.9-2.9,2.9v50.6c0,46.7-.1,50.5-1.7,49.9-1.3-.5-1.5-.2-1,1.6l.6,2.3-2.4-2.2-2.4-2.3-5.8,5c-3.2,2.7-12.8,10.5-21.3,17.3s-17.1,13.8-19,15.5l-3.6,3.1,11.7,9.5c12.4,9.9,13.7,12,10.5,16.5-1.4,1.8-3.4,1.9-64.6,2.2-56.3.2-63.2.1-62.6-1.3.7-1.9-.7-1.9-4.4,0l-3,1.6V710H79c-20.9,0-38.3-.1-38.7-.3s-.9,8.9-1.1,20L39,750H77v20c0,17.3-.2,19.9-1.5,19.4-2-.8-1.9.5.5,4.3l2,3.3H39v40h78V797H98c-10.4,0-19-.3-19-.8a18.63,18.63,0,0,1,1.5-3.2q2.85-4.8,0-3.6c-1.3.5-1.5-2.1-1.5-19.4V750h38V729.9l3,1.6c3.3,1.7,4.6,1.7,4.2-.2-.2-1,12-1.3,62.5-1.3,69.2,0,66.8.2,67.5-6.1l.3-3,12.3,10L279.1,741l11.6-9.7c6.4-5.3,11.3-8.9,11-8s-1,2.5-1.4,3.4c-.5,1.2-.2,1.5,1,1,1.6-.6,1.7,1.3,1.7,22.4v23.1l2.9,2.9,2.9,2.9H479v19h78v-9.5c0-5.2.3-9.5.8-9.5a7.32,7.32,0,0,1,2.6,1.5c2.6,2,5,1.9,4.2,0-.5-1.3,3.4-1.5,31-1.5h31.6l2.9-2.9,2.9-2.9V757c0-10.8-.3-15.9-1-15.5s-1,6.5-.9,16.2c.1,13.9-.1,15.8-1.8,17.4s-4.5,1.8-33.5,2.1c-29.9.3-31.7.2-31.2-1.5.7-2.2.3-2.2-4,.4l-3.6,2.1V758H479v19.5l-84.7-.2c-91.7-.3-89.3-.2-89.3-5.6-.6-42.4-.6-44.4,1.3-43.9s1.8.2-.2-3.6l-2.1-4.1,3.3-2.3c1.7-1.2,7.1-5.5,11.8-9.4l8.5-7.1,3.9,1.9,3.8,2-.6-2.1-.5-2.1H478.9l.3,9.7.3,9.8,38.8.3,38.7.2V701l4.1,2,4.1,2.1-.7-2c-.6-2.1-.4-2.1,19.4-2.1H604v39h78.1l-.3-19c-.2-10.5.1-19,.5-19a16.22,16.22,0,0,1,3.9,1.6c3,1.6,3.1,1.5,2.5-.5l-.5-2.1H824v7.9c0,7.4.2,8.1,2.6,10s4.1,2.1,14,2.1H852v11.5c0,10.2-.2,11.7-2,13.5-2,2-3.4,2-71.2,2.1-38.1.1-69.7.1-70.2,0a9.92,9.92,0,0,0-3.8,1c-5.8,2.4-5.8,2.5-5.8,52.9,0,25.3-.3,45.9-.7,45.9-2.1-.3-2.2.3-.8,3.1a17,17,0,0,1,1.5,3.5c0,.3-8.5.5-19,.5H661v39H617c-38.6,0-43.9-.2-43.4-1.5.8-2-1-1.9-4.1.1l-2.5,1.6V875H489v19H435.5c-47.1,0-53.4-.2-52.9-1.5.8-1.9-.9-1.9-4.4-.1-2.9,1.4-1.6,2.4-42.8-31.1l-8.9-7.2-2.5,2.3c-2.4,2.2-8.7,7.3-34.9,28.4L277.7,894H248.4c-25.7,0-29.3-.2-28.8-1.5.8-2-1-1.9-4.1.1l-2.5,1.6V875H135v19H85.2l.6-2.2.5-2.2-3.6,2.3L79,894.2V875H1v40H79v-9.5c0-5.2.2-9.5.5-9.5a16.08,16.08,0,0,1,3.7,1.6c3,1.6,3.1,1.5,2.5-.5s-.4-2.1,24.4-2.1H135v20l38.8-.2,38.7-.3.3-9.7.3-9.7,3.6,2.2,3.6,2.1-.5-2.2-.6-2.2H278l3.7,3.3c2.1,1.9,12.9,10.7,24.1,19.6L326,934.2v15.4c0,13.2-.2,15.3-1.5,14.8q-2.85-1.2,0,3.6a18.63,18.63,0,0,1,1.5,3.2c0,.5-8.5.8-19,.8H288v40h38v20c0,17.3-.2,19.9-1.5,19.4-1.9-.8-1.9.9,0,4.6l1.6,3H288v40h78v-40H327l2-4.1c2-3.9,2.1-4.1.2-3.5s-1.9-.2-1.9-19.4l-.1-20H366V972H327l2-4.1c2-3.9,2.1-4.1.2-3.5s-1.9-.1-1.9-14.6V934.5l17.4-14c9.6-7.7,20.5-16.5,24.1-19.6l6.7-5.7,3.8,2,3.9,1.9-.7-2-.6-2.1H489v20h78V895.1l3.7,2.1,3.6,2.2-.5-2.2-.6-2.2H661v39h78V855H720c-10.4,0-19-.3-19-.8a8.74,8.74,0,0,1,1.6-3c1.5-2.2,1.1-4.7-.7-3.7-.5.4-.9-17.4-.9-45.8,0-44.3.1-46.6,1.9-48.8l1.9-2.4L777,750l72.2-.5,2.4-2.8c2.2-2.6,2.4-3.6,2.4-14.3V721h55v11.4c0,10.7.2,11.7,2.4,14.3l2.4,2.8,87.1.5c81.8.5,87.1.6,88.8,2.3s1.8,5.2,2.1,48.9c.2,41.9.1,47-1.3,46.4-1.9-.7-1.9.7,0,4.4l1.5,3-19.2.2-19.3.3-.3,39.2L1053,934h78V895h87.8l-.5,2.1-.6,2.1,4.2-2.1,4.1-2.1v20l38.8-.2,38.7-.3.3-9.7.3-9.8h116.7l-.5,2.1-.6,2.1,3.9-2,3.9-2,9.1,7.7c5,4.2,11.2,9.3,13.8,11.4,3.5,2.9,4.5,4.3,4.1,5.8-.4,1.3-.2,1.9.9,1.9,1.4,0,1.6,3.1,1.6,26.9,0,25.6-.1,26.9-2.1,29.5l-2,2.6H1304V962h-78v9.5c0,5.2-.3,9.5-.7,9.5a15.72,15.72,0,0,1-3.3-1.5q-4.8-2.85-3.6,0c.5,1.3-2.9,1.5-26.3,1.5-25,0-27-.1-29.2-1.9-2.4-1.9-2.4-2.1-2.9-26.6l-.5-24.7-2.8-2.4c-2.6-2.2-3.5-2.4-13.5-2.2l-10.7.1,10.7.6c16,.9,15.2-.7,15.8,29.7l.5,24.6,2.8,2.4,2.8,2.4H1192c23.5,0,26.9.2,26.4,1.5q-1.2,2.85,3.6,0a15.72,15.72,0,0,1,3.3-1.5c.4,0,.7,4.3.7,9.5v9.5h78V983h73.4c46.3,0,74.4-.4,76.1-1,4.8-1.8,5.4-5.2,5.5-33.5,0-14.2.2-26.1.5-26.3s4,2.5,8.5,6.1l8,6.6,18.3-14.6c21.9-17.6,30.1-24.5,30.5-25.6.2-.5-5.4-5.5-12.5-11.1l-12.8-10.2.5-25.7c.5-24,.6-25.8,2.5-27.6,2.5-2.4,2-2.4,24.7-2.2,16.2.1,18.7.3,18.2,1.6q-1.2,2.85,3.6,0a15.72,15.72,0,0,1,3.3-1.5c.4,0,.7,4.3.7,9.5V837h78V797h-78v9.5c0,5.2-.3,9.5-.7,9.5a15.72,15.72,0,0,1-3.3-1.5q-4.8-2.85-3.6,0c.5,1.3-2.1,1.5-19.5,1.5-22.3,0-24.9.6-26.8,6.1-.7,2-1.1,12-1.1,26.6v23.4l-8.2-6.7c-4.6-3.7-9.4-7.8-10.9-9.1l-2.5-2.3-7,5.7c-10.5,8.5-9.9,8.2-8.5,5.5,1.1-2,1-2.3-.4-2s-1.8-1.7-2.2-19.7c-.3-11.9-1-21-1.7-22.5-2.3-5.1-1-5-79.3-5H1304V797h-78v9.5c0,5.2-.3,9.5-.7,9.5a15.72,15.72,0,0,1-3.3-1.5q-4.8-2.85-3.6,0c.5,1.3-2.9,1.5-26.5,1.5h-27.1l-2.9,2.9-2.9,2.9v19c0,19.3-.8,24.4-3.8,25.8-.9.5-6.6,1.1-12.7,1.4l-11,.6,10.7.2c11.7.2,15-.7,16.7-4.5.7-1.5,1.1-9.7,1.1-21.9,0-19.4,0-19.5,2.5-21.9l2.4-2.5h27c23.6,0,27,.2,26.5,1.5q-1.2,2.85,3.6,0a15.72,15.72,0,0,1,3.3-1.5c.4,0,.7,4.3.7,9.5V837h78V818h74c70.5,0,74.1.1,75.8,1.8s2,4.2,2.5,17.2c1.1,23.8,1,27-.8,26.4-1.9-.8-1.9,0,0,3.6l1.5,2.9-14.8,11.9c-14.2,11.4-15,11.9-17.3,10.6-3.2-1.8-5.3-1.8-4.5.1.5,1.3-6.4,1.5-57.9,1.5H1304V875h-78v19.1l-3-1.6c-3.7-1.9-5.4-1.9-4.6,0,.5,1.3-4.8,1.5-43.4,1.5h-44V855h-38.1l1.6-3c1.9-3.7,1.9-5.1,0-4.4-1.3.5-1.5-5-1.5-46.4V754.1l-2.4-2.8-2.4-2.8-87.1-.5c-81.8-.5-87.1-.6-88.8-2.3-1.5-1.4-1.9-3.9-2.1-13.2l-.4-11.5h12c10.6,0,12.2-.2,14.6-2.1s2.6-2.6,2.6-10v-8l3,1.6c3.7,1.9,5.1,1.9,4.4,0-.5-1.3,9-1.5,82-1.5H1111v20l38.8-.2,38.7-.3.3-9.8.3-9.8,3.6,2.2,3.6,2.3-.5-2.2-.6-2.2h136l16.7,13.4c9.2,7.4,20.3,16.4,24.6,20l7.8,6.5,2.7-2.2c1.5-1.2,12.6-10.2,24.7-19.9l22-17.8h19.1c18.8,0,19,0,18.5,2.1l-.6,2.1,4.2-2.1,4.1-2.1v20h79V701h66.8l-.5,2.1-.6,2.1,3.8-2,3.9-1.9,15.5,12.6c8.6,6.9,19.6,15.8,24.4,19.8l8.8,7.2,12.6-10.2c6.9-5.6,18-14.6,24.6-20l12-9.7h58.5l-.6,2.2-.5,2.2,3.6-2.2,3.7-2.1V720h78V700.6c0-16.8-.2-19.5-1.6-20a53.84,53.84,0,0,0-9.5-.6H1849V229.8l-2.9-2.9-2.9-2.9h-13.1c-11.2,0-13-.2-12.5-1.5.8-1.9,0-1.9-3.6,0-3,1.5-3,1.5-3-1.4a6.26,6.26,0,0,0-2.6-5c-2.5-2-3.9-2.1-29-2.1h-26.3l2.1-3.7,2.2-3.6-2.2.5-2.2.6V44.9l-2.5-2.4-2.4-2.5H1420V20h-72V39.9l-3.7-2.1-3.6-2.2.5,2.2.6,2.2h-57.1l-57.2-.1-6-5c-5.2-4.4-39.2-31.9-42-34C1178.9.4,1171.1,6.1,1160.8,14.3Zm41.1,7.7c11.2,9.1,20.9,16.9,21.5,17.4.9.6-3.8,5-15.8,14.7-9.4,7.5-19.8,16-23.1,18.7-5.1,4.3-6.2,4.9-7.5,3.8-6.3-5.4-37.3-30.7-40.6-33.1l-4.1-2.9,13-10.6c7.1-5.8,17.4-14.2,23-18.7,8.4-6.9,10.3-8,11.7-7C1180.9,5,1190.7,12.9,1201.9,22ZM1000,40.2V59H921V40.7c0-10.1.2-18.6.4-18.8s18-.4,39.5-.4H1000Zm418.8.3L1419,59l-34.6-.2-34.6-.3-.2-18.3c0-10,.2-18.3.6-18.5s16-.1,34.5,0l33.8.2ZM1008.1,44c.6,0,.9-.7.5-1.5-.5-1.3,6.6-1.5,60.2-1.5h60.7l17.1,13.7c9.3,7.6,20.2,16.5,24.2,19.7l7.2,6-2.1,3.4-2,3.5,2.1-.6c2-.5,2-.5,2,68.4V224h-39v40h39l-2.1,4.1-2.1,4.2,2.1-.6c2.1-.5,2.1-.4,2.3,29.1l.3,29.7.2-29.7c.3-29.4.3-29.6,2.4-29.1l2.1.6-2.1-4.2L1179,264h39V224h-39V154.9c0-61.4.2-69,1.5-67.9,2,1.6,2-.1.1-3.9l-1.5-2.8,11.7-9.6c6.4-5.3,17.3-14.1,24.2-19.6L1227.5,41h57.2c50.5,0,57.2.2,56.7,1.5-.8,1.9,0,1.9,3.6,0l3-1.6V60h72V41l164,.2c155.8.3,164,.4,165.7,2.1s1.8,6.6,2.1,83.1l.2,81.4-2-.5c-2.1-.6-2.1-.6.1,3.1l2.1,3.6h-26.6c-32.1,0-30.6-.6-30.6,12v8l-4.1-2.1-4.2-2.1.6,2.1.5,2.1H1602V214h-74v20.2l-3.4-2c-3.6-2.1-5.4-1.9-3.5.5,1,1.1-6.7,1.3-46.1,1.3h-47.2l-10.6-8.8c-5.9-4.8-12.7-10.3-15.2-12.2s-8.4-6.8-13.2-10.8l-8.7-7.4,2-4,2-4-2,.7c-2.1.6-2.1.4-2.1-19.4V148h53.9l2-2.6c1.9-2.4,2.1-4,2.1-18s-.2-15.6-2-17.4c-2-2-3.3-2-56.5-2s-54.5,0-56.5,2c-1.8,1.8-2,3.3-2,17.4s.2,15.6,2.1,18l2,2.6H1379v20.1c0,17.5-.2,20-1.5,19.5-1.9-.7-1.9.7,0,4.4l1.5,2.9-12.6,10.3c-31.1,25.3-35.4,29-34.9,29.8.3.5,6,5.3,12.8,10.7s17.3,14,23.5,19.1l11.2,9.4v25c0,24.7,0,24.9-2.1,24.3l-2-.7,2.1,4.1,2,4.1h-40v40h40v69.8l-2.2-.6-2.2-.5,2.2,3.6,2.1,3.7h-53l-2.4,2.5a8.24,8.24,0,0,0-2.5,5V457h-67.5c-47.3,0-68.1-.3-69.8-1.1a7.85,7.85,0,0,1-3.6-3.6c-.7-1.6-1.1-14.1-1.1-38.4,0-36,0-36,2.1-35.4l2,.7-2.1-4.1-2-4.1h26.9c29.1,0,29.3,0,30.7-5.4.3-1.3.4-9,.2-17.1-.3-13.1-.5-14.8-2.2-16.1s-11-1.4-56.2-1.4h-54.3l-2,2.6c-1.9,2.4-2.1,4-2.1,17.4s.2,15,2.1,17.4l2,2.6H1178l-2.1,4.1-2.1,4.2,2.1-.6,2.1-.5v74.9l2.5,2.4,2.4,2.5H1321v9c0,4.9-.2,9-.5,9a14.32,14.32,0,0,1-3.6-1.6c-3-1.5-3.1-1.5-2.4.5l.6,2.1-174.6-.2-174.7-.3-2.4-2.8-2.4-2.8V264h40V224H960.9l1.6-3c1.9-3.7,1.9-5.1,0-4.4-1.3.5-1.5-8.5-1.5-78V60h40V40.9l3,1.6A13.93,13.93,0,0,0,1008.1,44Zm426.3,66.6c1.3,1.3,1.6,4.2,1.6,16.5,0,8.5-.5,15.9-1,17-1,1.8-2.7,1.9-55.3,1.9-40.9,0-54.6-.3-55.5-1.2s-1.2-6-1.2-16.9c0-13,.3-16,1.6-17.3s7.7-1.6,54.9-1.6S1433,109.2,1434.4,110.6Zm-46,93.2c4.4,3.8,14.8,12.2,22.9,18.7,11.9,9.5,14.6,12,13.5,13-.7.7-7.4,6.1-14.8,12s-17.2,13.9-21.6,17.7-8.5,6.8-8.9,6.8-5.7-4.2-11.9-9.3-16.4-13.5-22.8-18.6-11.8-9.5-11.8-9.6,8.7-7.3,19.3-15.8,20.8-16.9,22.7-18.6a17.77,17.77,0,0,1,4.4-3.1C1379.9,197,1383.9,200.1,1388.4,203.8ZM1601,234.5V253h-72V216h72Zm206.8-17.3c.8.8,1.2,6.1,1.2,17.5,0,15-.1,16.3-1.9,17.3-1.3.6-20.3,1-54.7,1-47.7,0-52.9-.2-54.6-1.7s-1.8-3.4-1.8-16.9c0-12.5.3-15.5,1.6-16.8s7.8-1.6,55.3-1.6C1793.3,216,1806.9,216.3,1807.8,217.2ZM1000,244v19H921V225h79Zm217,0v19h-77V225h77Zm600.7-16.9-.6-2.3,12.9.4c11.9.3,13.1.5,15.2,2.6l2.3,2.3.3,224.9.2,225-28.7.2-28.8.3-.3,9.7-.3,9.7-3.6-2.2-3.6-2.1.5,2.2.6,2.2h-58.5l-17.4-14.1c-9.6-7.7-20.4-16.5-24.1-19.5l-6.8-5.5V633.5c0-24,.2-27.4,1.5-26.9q2.85,1.2,0-3.6a15.72,15.72,0,0,1-1.5-3.3c0-.4,8.6-.7,19-.7h19V559h-37.9l-.3-39.1-.3-39.1-2.4-1.9c-2.3-1.8-5.6-1.9-116.1-1.9H1444.2l.5-2.1c.6-2,.5-2.1-2.5-.5a16.22,16.22,0,0,1-3.9,1.6c-.4,0-.8-3.8-.8-8.5s.4-8.5.8-8.5a16.22,16.22,0,0,1,3.9,1.6c3,1.6,3.1,1.5,2.5-.5l-.5-2.1h303.9l2.4-2.5,2.5-2.4V255h26.4c33.8,0,31.6,1.2,31.6-17V225.1l3.7,2.1,3.6,2.2ZM1521,236.5c-1.7,2,.1,2,4,0l2.9-1.5.3,9.7.3,9.8,36.8.3,36.7.2V235h85.8l-.5,2.1-.6,2.1,4.2-2.1,4.1-2.1v7.8c0,12.5-2,11.7,29.9,11.7H1752l-.2,99.2c-.3,93.7-.4,99.3-2.1,101s-9.4,1.8-153.6,2.1l-151.9.2.6-2.2.5-2.2-3.6,2.3-3.7,2.3v-2.7a8.24,8.24,0,0,0-2.5-5l-2.4-2.5h-53.3l2.3-3.7,2.3-3.6-2.2.5-2.2.6V371h40V331h-40l2.1-4.1,2.1-4.2-2.1.6c-2.1.5-2.1.4-2-24.6V273.5l9.7-7.8c5.3-4.2,16-12.9,23.7-19.1l14-11.5h47.4C1516.9,235,1522.1,235.2,1521,236.5Zm-287.8,97.2c1.6,1.4,1.8,3.4,1.8,17.1,0,13.1-.3,15.8-1.7,17.4s-4.5,1.8-54.6,1.8c-48,0-53.2-.2-54.9-1.7s-1.8-3.4-1.8-17.1c0-13.1.3-15.8,1.7-17.4s4.5-1.8,54.6-1.8C1226.3,332,1231.5,332.2,1233.2,333.7ZM1419,351v19h-79V332h79Zm15.4,99.6c1.3,1.3,1.6,4.3,1.6,16.9s-.3,15.6-1.6,16.9-7.7,1.6-54.9,1.6-53.5-.2-54.9-1.6-1.6-4.2-1.6-16.5c0-8.5.5-15.9,1-17,1-1.8,2.7-1.9,55-1.9C1426.6,449,1433,449.2,1434.4,450.6Zm6.6,28.9q4.8,2.85,3.6,0c-.5-1.3,12.4-1.5,111.9-1.5,66.3,0,113.4.4,114.8.9a5.93,5.93,0,0,1,3,2.5c.4.9.7,18.6.7,39.4l.1,37.7-19.1.3-19,.2v40h39l-2,4.1c-2,3.8-2,4-.3,3.5s1.8.7,1.6,26.5c-.2,19-.6,27.6-1.4,28.5s-9.8,8.4-20.3,16.8-20.7,16.8-22.6,18.4l-3.5,3-3.9-2-3.9-2,.6,2.1c.5,2.1.5,2.1-32.9,2.1H1554V680h-79v20l-4.1-2.1-4.2-2.1.6,2.1c.5,2.1.3,2.1-18.5,2.1h-19l-22-17.8c-29.9-24.1-26.9-21.2-25.3-24.2,1.9-3.3,1.9-5.1,0-4.4-1.3.5-1.5-3.1-1.5-29.5V594h39V554h-39.1l1.6-3c1.9-3.7,1.9-5.1,0-4.4-1.3.5-1.5-3.1-1.5-29.2V487.5l26,.3,26,.3,2.6-2.6c1.8-1.8,2.5-3.4,2.1-5.1C1437.2,477.6,1437.6,477.5,1441,479.5ZM558,555v19H481V536h77Zm-79,10.2V575h80V554.8l3.6,2.1c4.3,2.6,4.7,2.6,4,.3-.6-1.8,1.1-1.9,44.1-1.7,24.7.1,45.5.5,46.4.9,3.7,1.6,3.9,4.5,3.9,55.1V661H604v39H583.9c-17.5,0-20-.2-19.5-1.5.7-1.9-.7-1.9-4.4,0l-3,1.6V680l-38.7.2-38.8.3-.3,9.7-.3,9.8H334.2l.5-2.1.6-2.1-4.1,2.1c-3.5,1.8-4.2,1.9-5.2.5-.7-.8-6.4-5.5-12.6-10.5L302,678.8l1.5-2.8c1.9-3.6,1.9-4.4,0-3.6-1.3.5-1.5-1.8-1.5-16.8,0-15.6.2-17.6,1.9-19.7l1.9-2.4,86.6-.3,86.5-.2.3,9.7.3,9.8,39.8.3,39.7.2V632.9l3,1.6c3.7,1.9,5.1,1.9,4.3,0-.5-1.4,2.9-1.6,30.5-1.3,37.9.4,35.2-.7,35.2,14.4,0,6.3.4,10.5,1.1,11s1-2.7.7-10.6c-.3-10.8-.4-11.3-3.1-13.6l-2.8-2.4H596.8c-27.2,0-30.9-.2-30.4-1.5.7-1.9-.7-1.9-4.4,0l-3,1.6V612l-39.7.2-39.8.3-.3,9.7-.3,9.8H306.1l-2.8,2.4-2.8,2.4-.3,18.1c-.3,15.8-.5,17.9-1.9,17.4s-1.4-.3-.3,1.7l1.2,2.3-2.8-2.1c-1.6-1.2-4.2-3.2-5.9-4.5l-3-2.5,1.8-3.7c1.7-3.6,1.7-3.6-.3-3s-2,.3-2-48.7c0-52.2.1-53,4.7-55.3,1.5-.8,30.7-1.1,94.7-1.1H479Zm939.8,9,.2,18.8h-77V555.3l38.3.1,38.2.1ZM1714,579v19h-75.5l.2-18.3c.1-10,.2-18.5.2-19s17-.7,37.6-.7H1714ZM558,632.5V651H481V614h77Zm122,68V739H605V662h75Zm-399-36c.7.9,9.9,8.5,20.4,16.9s20.2,16.2,21.4,17.3l2.4,1.9L310.8,712c-7.8,6.2-18.2,14.7-23,18.7l-8.7,7.3-3.3-2.8c-1.8-1.6-11.6-9.5-21.8-17.7s-19.1-15.3-19.8-16c-1-.9,3.2-4.7,20.2-18.3,11.7-9.5,21.9-17.9,22.6-18.7C278.6,662.6,279.4,662.6,281,664.5Zm1125.8,20,19.8,16L1411,713c-8.6,6.9-18.7,15.1-22.5,18.2s-7.4,5.8-8,5.8-5.9-4-12-8.9-16.2-13.2-22.6-18.3l-11.6-9.4,12.5-9.9c6.9-5.5,17.2-13.9,23-18.7l10.5-8.7,3.4,2.7C1385.5,667.3,1395.9,675.7,1406.8,684.5Zm305.5,7.9c5.3,4.3,9.7,7.9,9.7,8.1s-4.2,3.6-9.2,7.6-15.4,12.4-23,18.6l-13.6,11.1-11.9-9.6c-6.5-5.3-16.9-13.7-23.1-18.7-10.6-8.5-11.1-9.1-9.3-10.5,13.8-11,37.4-30.1,40.4-32.7l3.7-3.3,13.3,10.8C1696.5,679.7,1706.9,688.1,1712.3,692.4ZM556,700.5V719H481V682h75Zm380.2-16.8c1.6,1.4,1.8,3.3,1.8,16.2,0,11.6-.3,15.1-1.6,16.9l-1.5,2.2H881.8c-48,0-53.3-.2-55-1.7S825,714,825,700.7c0-12.6.3-15.3,1.7-16.9s4.5-1.8,54.6-1.8C929.3,682,934.5,682.2,936.2,683.7ZM1187,700.5V719h-75V682h75Zm366,0V719h-77V682h77Zm314,0V719h-75V682h75Zm-1751,29V748H40V711h76ZM556,778v19H481V759h75ZM116,817v19H40V798h76Zm1186,0v19h-75V798h75Zm328,0v19h-76V798h76ZM738,894.5V933H662V895.2c0-20.8.3-38.2.7-38.5s17.4-.7,38-.7H738Zm392,0V933h-75V856h75Zm-789.5-26c6.1,4.9,15.8,12.8,21.7,17.5,9.9,7.9,10.5,8.6,8.9,10-1,.8-8.5,6.9-16.7,13.5s-17.7,14.3-21.1,17.2L327,932l-13.7-11.1c-7.6-6-14.7-11.8-15.8-12.7s-5.3-4.4-9.2-7.6-7.3-5.9-7.3-6.1,8.4-7,18.8-15.2,20.5-16.6,22.7-18.6c3.2-2.8,4.3-3.3,5.5-2.4C328.8,858.9,334.5,863.5,340.5,868.5Zm1160.5,9c10.2,8.2,19.1,15.4,19.9,16.1,1.1,1,0,2.2-6,7.1-4.1,3.2-8.3,6.6-9.4,7.5s-6.9,5.6-13,10.4-12.2,9.7-13.6,11l-2.6,2.4-8.1-6.6c-4.5-3.6-8.4-7.5-8.7-8.5s-1.2-1.8-1.8-1.6-3.2-1.1-5.6-3-5-3.3-5.7-3.3a1.51,1.51,0,0,1-1.5-1.3c0-.6-3.3-3.8-7.4-7.1l-7.3-5.8,3.1-2.7c1.8-1.5,7.5-6.2,12.7-10.3s14.2-11.4,19.9-16.2l10.5-8.6,3,2.8C1481.1,861.4,1490.8,869.4,1501,877.5ZM77,894.5V913H2V876H77Zm134,0V913H136V876h75Zm354,0V913H490V876h75Zm737,0V913h-75V876h75Zm0,87.5v19h-75V963h75Zm-938.2,9.5-.3,18.6h-74l-.3-18.6L289,973h75Zm.4,87.5.3,19H289v-38h74.9Z" transform="translate(-1 -0.87)"/>
    <path d="M1152.9,29.2c0,.2-.2,2.2-.2,4.6-.2,3.8,0,4.2,2.2,4.2a6.82,6.82,0,0,0,4.3-1.7c1.7-1.5,1.8-1.5,1.8,0,0,2.2,3.6,2.2,4.8.1.8-1.5,1-1.5,1.5,0,.7,1.7,4.7,2.3,4.7.6,0-.5-.6-.7-1.4-.4a1.72,1.72,0,0,1-2-.4c-1-1.6,5.3-2,7.2-.5,1.5,1.3,1.5,1.3-.7.7-1.6-.4-2.1-.3-1.7.5.8,1.2,3.9,1.5,4.9.5s-.4-3.4-1.9-3.4c-.8,0-1.4-.4-1.4-1s.7-.7,1.5-.4,1.5.1,1.5-.5c0-1.8-3.7-1.3-4.5.6-.6,1.7-.7,1.7-1.6,0-1.2-2.1-3.8-2.2-4.5-.2-.6,1.4-.8,1.3-2-.2-1-1.5-1.6-1.6-3.2-.7s-2.1.8-3-.7S1153.3,28.1,1152.9,29.2Zm3.9,1.7c1.9,1.2,1.1,5.5-1,5.9-1.5.3-1.8-.4-1.8-3.2C1154,29.9,1154.5,29.4,1156.8,30.9Zm7.8,4.7c-.5,1.3-1,1.4-1.8.6a2.73,2.73,0,0,1-.4-2.8c.5-1.3,1-1.4,1.8-.6A2.73,2.73,0,0,1,1164.6,35.6Z" transform="translate(-1 -0.87)"/>
    <path d="M1182.4,33.7c.2,1.6.4,3.1.5,3.5s1.2.8,2.6.8c2.2,0,2.5-.4,2.5-3.5,0-1.9-.4-3.5-1-3.5s-1,1.3-1,3-.4,3-1,3-1-1.4-1-3-.4-3-.9-3S1182.3,32.2,1182.4,33.7Z" transform="translate(-1 -0.87)"/>
    <path d="M1189,33c0,1.1.7,2,1.5,2s1.5.5,1.5,1.1-.7.9-1.5.5-1.5-.2-1.5.3c0,1.2,9.9,1.1,10.6-.1.4-.6-.2-.8-1.5-.3s-2.1.2-2.1-.4.9-1.1,2-1.1c2.4,0,2.7-2.8.3-3.7-1-.4-2.2.1-3.2,1.4-1.6,1.9-4.1,2.1-4.1.2,0-.4.7-.5,1.7-.2s1.4.3.9-.5C1192.4,30.2,1189,30.8,1189,33Zm9.5,0c.3.5-.1,1-1,1s-1.3-.5-1-1,.8-1,1-1S1198.2,32.4,1198.5,33Z" transform="translate(-1 -0.87)"/>
    <path d="M1201.1,34.7c.2,3.1.3,3.3.6,1,.2-1.5.9-2.7,1.4-2.7a1,1,0,0,0,.9-1c0-.6-.7-1-1.5-1C1201.4,31,1201,32,1201.1,34.7Z" transform="translate(-1 -0.87)"/>
    <path d="M1184.5,44.2c-1,2.4-.2,7.1,1.2,7.6.9.2,1.1-.5.7-2.6-.5-2.4-.2-3.2,1.6-4.2,2.5-1.3,3.9-.5,2.2,1.2-1.5,1.5-1.6,5.8-.2,5.8a.93.93,0,0,0,.8-1.3,7.51,7.51,0,0,1,1-3.5c.7-1.2,1-2.7.7-3.2-.8-1.3-4.2-1.3-5.1.1-.4.8-.9.7-1.5-.2C1185.3,42.8,1185,42.9,1184.5,44.2Z" transform="translate(-1 -0.87)"/>
    <path d="M1163.5,47.1c-.9,2.8,1.6,5.5,4.2,4.4,1.6-.7,1.5-.9-.7-1.5-2.5-.8-2.5-.8-.2-.9,1.7-.1,2.2-.6,2-1.9C1168.3,44.6,1164.3,44.4,1163.5,47.1Z" transform="translate(-1 -0.87)"/>
    <path d="M1170.3,48.7c-.1,2.8.1,3.2,1.3,2.2s1.4-.9,1.4,0c0,.7.5.9,1.1.5s.8-.9,0-1.7a2.2,2.2,0,0,1-.1-2.7c.8-1.4.5-1.8-1.3-1.8S1170.4,45.8,1170.3,48.7Z" transform="translate(-1 -0.87)"/>
    <path d="M1176,48.5c0,2.8.4,3.5,1.9,3.5,2.9,0,3.3-2.7.8-4.6-1.5-1.1-1.7-1.5-.4-1.1.9.4,1.7.2,1.7-.3s-.9-1-2-1C1176.4,45,1176,45.7,1176,48.5Z" transform="translate(-1 -0.87)"/>
    <path d="M1182.3,48.5c0,2.2.2,3,.4,1.7a13.39,13.39,0,0,0,0-4C1182.4,45.3,1182.2,46.3,1182.3,48.5Z" transform="translate(-1 -0.87)"/>
    <path d="M951,36.8a7.69,7.69,0,0,0,1.5,2.8,8.76,8.76,0,0,1,1.6,3.9c0,1.5.3,1.3.9-.8a14.34,14.34,0,0,1,2.1-4.3c.6-.8.9-1.7.5-2.1s-1.3.2-2,1.3c-1.4,1.8-1.5,1.8-2.1.1S951,35.3,951,36.8Z" transform="translate(-1 -0.87)"/>
    <path d="M958.1,39.4a4.07,4.07,0,0,0-.6,3.6,2.93,2.93,0,0,0,5.1.8c.5-.8.2-.9-.9-.5-.9.3-1.9.2-2.2-.3s.3-1,1.5-1c1.5,0,2-.5,1.8-1.7C962.4,38,959.7,37.5,958.1,39.4Zm3.4.6c.3.5-.1,1-1,1s-1.3-.5-1-1,.8-1,1-1S961.2,39.4,961.5,40Z" transform="translate(-1 -0.87)"/>
    <path d="M964.4,39.2c-.4.6,0,1.6.9,2.3,2.1,1.5,2.2,2.6.2,1.9-.8-.4-1.5-.1-1.5.5,0,1.5,3.7,1.4,4.6-.1.4-.6,0-1.6-.9-2.3-2.2-1.6-2.2-2.6,0-1.8,1.1.4,1.4.3.9-.5A2.52,2.52,0,0,0,964.4,39.2Z" transform="translate(-1 -0.87)"/>
    <path d="M1377,40.6c0,2.8.4,4.3,1,3.9s.7-1.8.4-3.3l-.6-2.7,2.1,2.5a12.2,12.2,0,0,1,2.1,3.2.91.91,0,0,0,1,.8c.6,0,.9-2.1.9-4.8-.2-4.2-.2-4.4-.8-1.4l-.6,3.4-1.8-3.1C1378.2,34.8,1377,35.2,1377,40.6Z" transform="translate(-1 -0.87)"/>
    <path d="M1385.5,39.1c-1.3,1.9.4,5.9,2.5,5.9a2.83,2.83,0,0,0,2.6-2.4c.7-3.1-.1-4.6-2.6-4.6A3.12,3.12,0,0,0,1385.5,39.1Zm3.5,2.3a2.52,2.52,0,0,1-1,2.1c-.5.3-1-.3-1-1.4s.5-2.1,1-2.1S1389,40.6,1389,41.4Z" transform="translate(-1 -0.87)"/>
    <path d="M1367.7,123.7c-1.5,1.4-.6,3.3,1.8,3.9,1.4.3,2.5,1.2,2.5,2,0,1.7-2.7,1.9-3.3.1-.2-.6-.8-.9-1.2-.4-1.4,1.2,1.1,2.9,3.6,2.5,3.3-.4,3.6-3.5.5-4.9-1.4-.7-2.3-1.6-2-2.1s1.3-.3,2.1.4,1.9,1.1,2.2.8.7.9.9,2.6c.3,3.1.4,3.1,5.8,3.3,5.2.1,5.4,0,5.4-2.5,0-1.6.5-2.4,1.2-2.2a2.61,2.61,0,0,1,1.3,2.3,2.57,2.57,0,0,0,1,2.2c.6.1,1-1.4,1-3.5,0-2.3-.5-3.7-1.3-3.6a21.3,21.3,0,0,1-2.7.2c-1,.1-1.5,1.3-1.6,3.4l-.1,3.3-.9-3.3c-.7-2.2-1.6-3.2-2.9-3.2-1.1,0-2,.5-2,1.1s.7.9,1.5.5,1.5-.1,1.5.4-.7,1-1.5,1a2.41,2.41,0,0,0-2.1,1.5c-1.1,2.7-2.5.4-1.8-2.7.5-2.6.4-3-1-2.5-.8.3-1.8.2-2.1-.3C1372.8,122.9,1368.7,122.7,1367.7,123.7ZM1382,130a1,1,0,0,1-1,1,1.08,1.08,0,0,1-1-1,1,1,0,0,1,1-1A.94.94,0,0,1,1382,130Z" transform="translate(-1 -0.87)"/>
    <path d="M1349.1,232.7c.1,2.6.4,3.8.6,2.5.6-2.9,4.3-3.1,4.3-.2,0,1.1.4,2,1,2s.9-1.9.7-4.3c-.2-4-.4-4.2-3.4-4.5l-3.3-.3Zm4.9-2.2c0,.8-.9,1.5-2,1.5s-2-.7-2-1.5.9-1.5,2-1.5S1354,229.7,1354,230.5Z" transform="translate(-1 -0.87)"/>
    <path d="M1377.7,229.4a2,2,0,0,1-2.5.9c-2.6-.6-4,1.7-1.9,3.2s2.2,2.9.2,2.1c-.8-.3-1.5-.1-1.5.4,0,1.4,3.7,1.2,4.6-.2.4-.6,0-1.6-.9-2.3-2.2-1.6-2.1-2.1.3-2.1,1.5,0,2,.7,2,2.7,0,2.6.2,2.7,5.5,2.7,5.1-.1,5.5-.3,5.5-2.4,0-3.3,1.8-3.9,2.2-.7s3.2,4.3,5.2,2.3c.8-.9.6-1.1-1.1-.5-1.4.4-2.3.2-2.3-.4,0-1.7,4-1.3,4.6.4a3.53,3.53,0,0,0,3,1.5c2.2,0,2.4-.4,2.3-4.8,0-2.6-.3-4.1-.6-3.5a2.49,2.49,0,0,1-2.3,1.3,2.62,2.62,0,0,0-2.3,1.2c-.4,1-.7,1-1.4.1-1.3-1.8-8.9-1.2-8.5.7a3.18,3.18,0,0,1-1.4,2.7c-2.1,1.6-3.4,1.7-3.4.3,0-.6.9-1,2-1,2.2,0,2.5-.7,1.1-2.8-1.4-2.3-4.6-1-4.9,2.1-.2,1.5-.7,2.5-1.2,2.2s-.6-1.8-.4-3.4C1380.1,229,1378.6,227,1377.7,229.4Zm7.3,2.6a1.1,1.1,0,0,1-1.1,1c-.5,0-.7-.5-.4-1s.8-1,1.1-1S1385,231.4,1385,232Zm16.3.6c.8.8-.3,3.4-1.4,3.4-.5,0-.9-.9-.9-2C1399,232.1,1400.1,231.4,1401.3,232.6Z" transform="translate(-1 -0.87)"/>
    <path d="M1405,229.7c0,1.5.2,1.6,1,.3.5-.8,1.2-1.1,1.7-.7s.1,1.7-.6,2.8c-1.6,2.7-.5,3.8,1.4,1.3s1.5-4.8-1.3-5.2C1405.6,227.9,1405,228.4,1405,229.7Z" transform="translate(-1 -0.87)"/>
    <path d="M1357.7,230.7c-.4.3-.7,1.9-.7,3.5,0,2.3.4,2.8,2.5,2.8,1.4,0,2.5-.5,2.5-1.1s-.7-.9-1.5-.6a1.58,1.58,0,0,1-2-.3c-.4-.6.5-1,1.8-1a3.59,3.59,0,0,1,3.1,1.5,2.86,2.86,0,0,0,2.3,1.6c1.2.1,1,.3-.7.9-2.3.7-2.3.8-.6,1.5,2.5,1.1,4.8-2,4.4-6-.3-3.2-3.4-4.7-4.9-2.4-.6,1.1-1.1,1.1-2.1.1C1360.5,229.9,1358.7,229.6,1357.7,230.7Zm2.8,1.3c.3.5-.1,1-1,1s-1.3-.5-1-1,.8-1,1-1S1360.2,231.4,1360.5,232Zm6.5,2c0,1.1-.4,2-1,2s-1-.9-1-2,.5-2,1-2S1367,232.9,1367,234Z" transform="translate(-1 -0.87)"/>
    <path d="M1370.3,233.5c0,2.2.2,3,.4,1.7a13.39,13.39,0,0,0,0-4C1370.4,230.3,1370.2,231.3,1370.3,233.5Z" transform="translate(-1 -0.87)"/>
    <path d="M1558,234.5c0,2.5.4,4.5.9,4.5s.8-1.1.5-2.5-.1-2.5.4-2.5,1.4,1.1,2,2.5c1.8,3.9,3.2,3,3.2-2,0-2.6-.5-4.5-1.1-4.5s-.9,1-.7,2.5.2,2.5-.2,2.5-1.2-1.1-1.8-2.5C1559.4,228.6,1558,229.5,1558,234.5Z" transform="translate(-1 -0.87)"/>
    <path d="M1566.4,233.4c-1,2.6.1,5.1,2.2,5.4,2.4.3,3.8-2,2.9-4.9C1570.8,231.7,1567.2,231.4,1566.4,233.4Zm3.6,2a2.93,2.93,0,0,1-.9,2.1c-1.2.7-2.4-1.2-1.6-2.5C1568.4,233.5,1570,233.8,1570,235.4Z" transform="translate(-1 -0.87)"/>
    <path d="M1707,234.5c0,2.5.5,4.5,1,4.5s1-.9,1-2c0-2.7,2.8-2.5,4,.2.7,1.9.9,1.4.9-2.5l.1-4.7h-3.5C1707,230,1707,230,1707,234.5Zm5.3-2c.1.5-.6,1.1-1.5,1.3-1.1.2-1.8-.3-1.8-1.3C1709,230.8,1712,230.7,1712.3,232.5Z" transform="translate(-1 -0.87)"/>
    <path d="M1736.8,231c-.5,1.7.3,8,1.1,8s.6-7.9-.2-8.6C1737.4,230.1,1737,230.4,1736.8,231Z" transform="translate(-1 -0.87)"/>
    <path d="M1749.8,231c-.6,1.8.3,8,1.2,8,.4,0,.6-1.8.5-4C1751.3,230.8,1750.5,229,1749.8,231Z" transform="translate(-1 -0.87)"/>
    <path d="M1772.1,234.7c.1,2.7.4,3.8.6,2.6a3.2,3.2,0,0,1,2.6-2.5,2.79,2.79,0,0,0,2.5-2.6c.3-1.9-.1-2.2-2.7-2.2C1772.1,230,1772,230.1,1772.1,234.7Zm4.2-2.2c.1.5-.6,1.1-1.5,1.3-1.1.2-1.8-.3-1.8-1.3C1773,230.8,1776,230.7,1776.3,232.5Z" transform="translate(-1 -0.87)"/>
    <path d="M1716,233.5a4.17,4.17,0,0,0-.5,3.5c.7,2.1,3.9,2.7,5.1.9.4-.8,0-.9-1.5-.4-1.2.4-2.1.2-2.1-.4,0-1.8,3.9-1.2,6,.9,1.8,1.8,1.8,2,.3,2-1.2,0-1.4.3-.7,1,2.2,2.2,4.4-.1,4.4-4.6,0-3.7-.3-4.4-2-4.4a3.56,3.56,0,0,0-2.8,1.6c-.8,1.5-1,1.5-1.5,0C1719.9,231.6,1717.6,231.5,1716,233.5Zm3.5.5c.3.5-.1,1-1,1s-1.3-.5-1-1,.8-1,1-1S1719.2,233.4,1719.5,234Zm6,1.8c0,1.8-2,1.5-2.3-.4-.3-1,.1-1.5,1-1.2A2.06,2.06,0,0,1,1725.5,235.8Z" transform="translate(-1 -0.87)"/>
    <path d="M1728.3,235.5c0,2.2.2,3,.4,1.7a13.39,13.39,0,0,0,0-4C1728.4,232.3,1728.2,233.3,1728.3,235.5Z" transform="translate(-1 -0.87)"/>
    <path d="M1731,234c0,1.1.7,2,1.5,2s1.5.5,1.5,1.1-.9.8-2.2.4c-1.8-.6-2-.4-1.2.5,1.4,1.5,4.6,1,5.2-.8.2-.7-.5-1.6-1.7-1.9s-2.1-1-2.1-1.5.7-.8,1.5-.4,1.5.1,1.5-.4-.9-1-2-1A1.8,1.8,0,0,0,1731,234Z" transform="translate(-1 -0.87)"/>
    <path d="M1740.1,235.7c.1,2.8.3,3.1.6,1.3a12.5,12.5,0,0,1,1.5-3.8c.8-.9.6-1.2-.6-1.2S1740,232.9,1740.1,235.7Z" transform="translate(-1 -0.87)"/>
    <path d="M1744,233c0,.5.8,1,1.8,1.1,1.2,0,1.1.3-.6,1-3.1,1.2-2.3,3.3,1.3,3.7,2.5.3,2.7.1,2.2-2a15.88,15.88,0,0,1-.7-3.6c0-.6-.9-1.2-2-1.2S1744,232.4,1744,233Zm3,4a1,1,0,0,1-1,1,1.08,1.08,0,0,1-1-1,1,1,0,0,1,1-1A.94.94,0,0,1,1747,237Z" transform="translate(-1 -0.87)"/>
    <path d="M1753.3,235.5c0,2.2.2,3,.4,1.7a13.39,13.39,0,0,0,0-4C1753.4,232.3,1753.2,233.3,1753.3,235.5Z" transform="translate(-1 -0.87)"/>
    <path d="M1756.1,233.4c-1.9,2.3-.4,5.8,2.2,5.4,1.7-.2,2.2-1,2.2-3.3C1760.5,232.1,1758.1,231,1756.1,233.4Zm3.6,3c-.4.9-1.1,1.6-1.7,1.6-1.1,0-1.4-3.3-.3-4.4S1760.3,234.7,1759.7,236.4Z" transform="translate(-1 -0.87)"/>
    <path d="M1762,235.4c0,2,.5,3.6,1,3.6s1-1.1,1-2.5.5-2.5,1-2.5,1,1.1,1,2.5.5,2.5,1.1,2.5.9-1.4.7-3.3c-.2-2.7-.8-3.3-3-3.5C1762.2,231.9,1762,232.1,1762,235.4Z" transform="translate(-1 -0.87)"/>
    <path d="M1780,233c0,.5.7.7,1.5.4s1.5-.2,1.5.4-.9,1.2-2.1,1.5-1.9,1.2-1.7,1.9c.6,1.8,4.9,2.3,5.9.6.7-1,.9-1,.9-.1,0,.7.8,1.3,1.8,1.4,1.5,0,1.5.1-.2.8-1.4.5-1.6,1-.7,1.5,2,1.3,4.1-1.4,4.1-5.5,0-3.5-.3-3.9-2.5-3.9-1.6,0-2.5.6-2.5,1.5s-.4,1.5-1,1.5-1-.7-1-1.5-.9-1.5-2-1.5S1780,232.4,1780,233Zm9,3c0,1.1-.4,2-1,2s-1-.9-1-2,.5-2,1-2S1789,234.9,1789,236Zm-6,1a1,1,0,0,1-1,1,1.08,1.08,0,0,1-1-1,1,1,0,0,1,1-1A.94.94,0,0,1,1783,237Z" transform="translate(-1 -0.87)"/>
    <path d="M1792.4,233.4c-1,2.6.1,5.1,2.4,5.4,1.2.2,2.2-.2,2.2-.8s-.7-1-1.5-.7a1.58,1.58,0,0,1-2-.3c-.4-.6.3-1,1.5-1,1.5,0,2-.5,1.8-1.7C1796.4,232,1793.2,231.4,1792.4,233.4Zm3.1.6c.3.5-.1,1-1,1s-1.3-.5-1-1,.8-1,1-1S1795.2,233.4,1795.5,234Z" transform="translate(-1 -0.87)"/>
    <path d="M932.7,233.7c-1.5,1.4-.6,3.4,2,4.4,2,.7,2.3,1.3,1.5,2.1s-1.5.9-2.4,0c-1.7-1.7-2.9-1.5-2.2.3s6.4,2.1,6.4.3c0-.9.3-.9,1.2,0,1.5,1.5,4.5,1.6,5.4.1.4-.8,0-.9-1.5-.4-1.2.4-2.1.2-2.1-.4s.9-1.1,2.1-1.1c1.4,0,1.9-.5,1.7-1.7-.4-2.3-3.6-2.9-5.1-1-1,1.2-1.7,1.3-4.1.2-1.9-.8-2.5-1.5-1.7-1.9a2.54,2.54,0,0,1,2.6.4c1.2,1,1.5.9,1.5-.4C938,233,934,232.3,932.7,233.7Z" transform="translate(-1 -0.87)"/>
    <path d="M956,234c0,.5-.7,1-1.5,1a3.2,3.2,0,0,0-2.3,1.6c-.8,1.5-1,1.5-1.5,0A3.11,3.11,0,0,0,948,235c-1.7,0-2,.6-1.9,3.7s.3,3.3.6,1c.3-1.6,1-2.6,1.6-2.4s1.1,1.4.9,2.5c-.3,2.3,1.3,3,2.1.9q.6-1.5.6,0c.1.7,1.2,1.3,2.6,1.3,2.3,0,2.5-.4,2.5-4.5,0-2.5-.2-4.5-.5-4.5S956,233.4,956,234Zm-.4,5.6c-.5,1.3-1,1.4-1.8.6a2.73,2.73,0,0,1-.4-2.8c.5-1.3,1-1.4,1.8-.6A2.73,2.73,0,0,1,955.6,239.6Z" transform="translate(-1 -0.87)"/>
    <path d="M985.2,233.7c1.2.3,1.8,1.7,2.1,4.6l.4,4.2.1-4.8c.2-4.3,0-4.7-2-4.6C984.1,233.2,984,233.4,985.2,233.7Z" transform="translate(-1 -0.87)"/>
    <path d="M962.1,236.9a5,5,0,0,0-.5,3.5c.7,1.9,4,2.1,5,.4.5-.8.2-.9-.9-.5-.9.3-1.9.2-2.2-.3s.3-1,1.5-1c1.5,0,2-.5,1.8-1.7C966.3,234.8,963.3,234.5,962.1,236.9Zm3.4.1c.3.5-.1,1-1,1s-1.3-.5-1-1,.8-1,1-1S965.2,236.4,965.5,237Z" transform="translate(-1 -0.87)"/>
    <path d="M968,238.5c0,4.1,1.7,4.7,2.3.7l.4-2.7.2,2.7c.1,3.5,2.1,3.7,2.1.3s1.8-3.2,2.3.2c.3,2.3.4,2.1.6-1,.1-3.7.1-3.7-3.9-3.7S968,235.1,968,238.5Z" transform="translate(-1 -0.87)"/>
    <path d="M978,236c0,.7.7,1,1.5.6s1.5-.2,1.5.3-.9,1.1-2.1,1.4c-3.5.9-1.6,3.2,2.9,3.5,4.2.3,4.2.3,4.2-3.2,0-4.5-2-4.8-2.1-.4l-.1,3.3-.7-3c-.4-2.1-1.3-3.1-2.9-3.3C979,235,978,235.4,978,236Zm3,4a1,1,0,0,1-1,1,1.08,1.08,0,0,1-1-1,1,1,0,0,1,1-1A.94.94,0,0,1,981,240Z" transform="translate(-1 -0.87)"/>
    <path d="M952.3,250.5c0,2.7.2,3.8.4,2.2a20.89,20.89,0,0,0,0-5C952.5,246.5,952.3,247.7,952.3,250.5Z" transform="translate(-1 -0.87)"/>
    <path d="M954.2,251c-.2,2.3.2,4,.8,4s1-1.8,1-4-.4-4-.8-4S954.3,248.8,954.2,251Z" transform="translate(-1 -0.87)"/>
    <path d="M963,251c0,3.8,1.3,5.4,2.3,2.7q.6-1.5.6,0a1.65,1.65,0,0,0,1.7,1.3c1.3,0,1.4-.3.4-1.5a3.88,3.88,0,0,1-.4-3.7c.6-2,.5-2.1-1-.9s-1.6,1.1-1.6-.3c0-.9-.4-1.6-1-1.6S963,248.8,963,251Z" transform="translate(-1 -0.87)"/>
    <path d="M957.1,251.9c.1,2.9.2,3.1.7,1.3.4-1.3,1.2-2.3,1.7-2.3s1.3,1,1.7,2.3c.5,1.8.6,1.5.5-1.2-.2-2.9-.6-3.5-2.4-3.6C957.3,248.3,957,248.7,957.1,251.9Z" transform="translate(-1 -0.87)"/>
    <path d="M1166,244.5c0,2.5.5,4.5,1,4.5s1-2,1-4.5-.4-4.5-1-4.5S1166,242,1166,244.5Z" transform="translate(-1 -0.87)"/>
    <path d="M1188.2,244.6c.4,4.9,2.3,5.5,2.2.7-.1-2-.7-3.9-1.3-4.1C1188.2,240.9,1188,241.9,1188.2,244.6Z" transform="translate(-1 -0.87)"/>
    <path d="M1169,245.6c0,2.1.4,3.3,1,2.9a1.22,1.22,0,0,0,.5-1.6c-.4-.5-.2-1.7.4-2.6,1-1.9,1.4-1.4,2.4,3.2.3,1.1.5.3.6-1.8.1-3.3-.2-3.7-2.4-3.7S1169,242.4,1169,245.6Z" transform="translate(-1 -0.87)"/>
    <path d="M1175,246.4c0,2.5.5,4.6,1,4.6a.92.92,0,0,0,1-.9c0-.5.9-1.1,2.1-1.4,1.6-.4,2-1.2,1.7-3.4s-.9-2.9-3-3.1C1175.1,241.9,1175,242,1175,246.4Zm4.5-1.4a2,2,0,0,1-1.2,1.7c-.8.3-1.3-.4-1.3-1.7s.5-2,1.3-1.8A2.3,2.3,0,0,1,1179.5,245Z" transform="translate(-1 -0.87)"/>
    <path d="M1182.1,245.2c-.1,3.4.2,3.8,2.4,3.8s2.5-.4,2.4-3.8c-.1-3.1-.2-3.3-.8-1.3-.9,3.5-2.9,3.7-3.4.4C1182.4,242,1182.3,242.1,1182.1,245.2Z" transform="translate(-1 -0.87)"/>
    <path d="M1137,350.5c0,2.5.5,4.5,1,4.5s1-.7,1-1.5a1.54,1.54,0,0,1,1.5-1.5c.8,0,1.5-.5,1.5-1s-.7-1-1.5-1-1.5-.5-1.5-1,.9-1,2-1,2-.5,2-1-1.3-1-3-1C1137.1,346,1137,346.2,1137,350.5Z" transform="translate(-1 -0.87)"/>
    <path d="M1170.7,346.7c-1.1,1-.8,8.3.3,8.3.6,0,1-.7,1-1.5a1.45,1.45,0,0,1,1.4-1.5,4.34,4.34,0,0,0,2.7-1.6c1.1-1.4,1-1.8-.6-3C1173.5,345.9,1171.7,345.6,1170.7,346.7Zm4.3,2.3c0,.5-.7,1-1.5,1s-1.5-.5-1.5-1,.7-1,1.5-1S1175,348.4,1175,349Z" transform="translate(-1 -0.87)"/>
    <path d="M1218.2,347.2c-.1,1-.5,1.7-.9,1.7-2.7-.4-3.4.3-3.1,3.3.3,3.3,1.5,4.3,3.6,2.9.9-.5,1.2-2.3.9-5.2C1218.5,347.5,1218.3,346.3,1218.2,347.2Zm-.7,5.8a1,1,0,0,1-1.7.2,1.84,1.84,0,0,1-.3-2.2,1,1,0,0,1,1.7-.2A1.84,1.84,0,0,1,1217.5,353Z" transform="translate(-1 -0.87)"/>
    <path d="M1166.9,348.2c-.3,2.9.3,6.4,1.2,7.2.5.6.9-.6.9-3.1C1169,348.5,1167.2,345,1166.9,348.2Z" transform="translate(-1 -0.87)"/>
    <path d="M1144,349.9a3.8,3.8,0,0,0,0,4.1c1.9,3.5,5.3,1.7,4.8-2.6C1148.4,347.9,1145.6,347,1144,349.9Zm3.5,3.1a1,1,0,0,1-1.7.2,1.84,1.84,0,0,1-.3-2.2,1,1,0,0,1,1.7-.2A1.84,1.84,0,0,1,1147.5,353Z" transform="translate(-1 -0.87)"/>
    <path d="M1150,351.7c0,3.3,1.5,4.8,1.6,1.5a13.23,13.23,0,0,1,.8-3.3c.5-1,.2-1.6-.9-1.6S1150,349.3,1150,351.7Z" transform="translate(-1 -0.87)"/>
    <path d="M1154.1,350.3c-1.1,2.9-.3,4.7,2.1,4.7,1,0,1.7.4,1.3,1a1.58,1.58,0,0,1-2,.3c-.8-.3-1.5,0-1.5.7s1,1,2.3.8c1.9-.3,2.2-1,2.5-4.8.3-4,0-4.6-1.8-4.7A2.76,2.76,0,0,0,1154.1,350.3Zm3.1,2.9c-1.5,1.5-2.6.4-1.8-1.8.5-1.3.9-1.5,1.8-.6S1158.1,352.3,1157.2,353.2Z" transform="translate(-1 -0.87)"/>
    <path d="M1161,349.5c-1,1.2-1,2.1-.1,4.1,1.2,2.8,2.8,2.8,4.5.1C1167.5,350.5,1163.4,346.6,1161,349.5Zm3,2.5c0,1.1-.4,2-1,2s-1-.9-1-2,.5-2,1-2S1164,350.9,1164,352Z" transform="translate(-1 -0.87)"/>
    <path d="M1178.5,349.5c-.3.8-.7,2.2-1,3-.5,1.6,1,2.8,3.7,3,2.4.2,2.6-6,.2-6.9C1179.2,347.8,1179,347.8,1178.5,349.5Z" transform="translate(-1 -0.87)"/>
    <path d="M1184.4,349.5a2.86,2.86,0,0,0,1.2,3.1c1.7,1.4,1.7,1.5.2,1-1-.3-1.8-.1-1.8.4,0,1.6,1.9,2.1,3.8,1.1,1.3-.7,2.2-.7,3,.1,1.9,1.9,4.1-.8,3.3-3.9s-2.8-4.1-3.8-1.7a2.47,2.47,0,0,0,1.2,3c3.1,2.3.3,1.6-3-.7-1.6-1.2-2.2-1.8-1.2-1.5q1.8.6,1.5-.6C1188.1,347.8,1185.1,347.6,1184.4,349.5Z" transform="translate(-1 -0.87)"/>
    <path d="M1195.6,351c.8,4.3,1.2,4.8,2.5,3,.8-1.1,1.2-1.2,1.6-.3.7,1.9,2.3,1.6,2.3-.5,0-1.4.3-1.3,1.8.6,2.4,3.1,5.2,2,5.2-1.9,0-3.7-2.7-5-4.6-2.4-1.4,1.8-1.4,1.8-1.5-.1,0-1.6-.2-1.5-1.1.6s-1.2,2.2-1.5.7c-.3-.9-.9-1.7-1.4-1.7s-.9.8-.9,1.7c-.1,1.4-.4,1.2-1.6-.7C1194.9,347.5,1194.9,347.5,1195.6,351Zm11.9,1a2,2,0,0,1-1.2,1.7c-.8.3-1.3-.4-1.3-1.7s.5-2,1.3-1.8A2.3,2.3,0,0,1,1207.5,352Z" transform="translate(-1 -0.87)"/>
    <path d="M1211.3,348.7c-1.5.5-1.8,6.3-.4,6.3.5,0,1.1-1.5,1.4-3.3C1212.8,348,1212.9,348.1,1211.3,348.7Z" transform="translate(-1 -0.87)"/>
    <path d="M1370,346.5a16.86,16.86,0,0,0,1.8,4.6l1.8,3.5,1.7-4c1.8-4.3,1.6-6-.4-2.8-1.2,2-1.3,2-3-.2C1370.9,346.5,1370.1,346,1370,346.5Z" transform="translate(-1 -0.87)"/>
    <path d="M1377,350a3.63,3.63,0,0,0,0,4c1.2,2.2,1.2,2.2,3.4,1.4,3.2-1.2,1.5-7.4-1.9-7.4C1378.2,348,1377.6,348.9,1377,350Zm3.7,3.6a2,2,0,0,1-1.9.1c-.8-.3-.5-.6.6-.6S1381.1,353.3,1380.7,353.6Z" transform="translate(-1 -0.87)"/>
    <path d="M1383.4,349.5a2.86,2.86,0,0,0,1.2,3.1c1.7,1.4,1.7,1.5.2,1-1.9-.6-2.5.8-.9,1.8,1.4.9,4.1-.4,4.1-2a3.75,3.75,0,0,0-1.7-2.4c-1.7-1.1-1.7-1.1,0-.6q1.8.6,1.5-.6C1387.1,347.8,1384.1,347.6,1383.4,349.5Z" transform="translate(-1 -0.87)"/>
    <path d="M1350.4,467.5c0,4.4.1,4.5,3,4.4s2.9-.1.9-.9c-1.8-.7-2.3-1.7-2.3-4.5,0-1.9-.3-3.5-.8-3.5S1350.5,465,1350.4,467.5Z" transform="translate(-1 -0.87)"/>
    <path d="M1382,467.5c0,2.5.5,4.5,1,4.5s1-.9,1-2a1.8,1.8,0,0,1,2-2c1.1,0,2-.4,2-.9s1.2-.6,2.7-.3c2.6.5,2.6.5.5,1.3-3.2,1.2-2.8,3.9.6,3.9,2.6,0,2.8-.2,2.4-3.6-.4-3.2-.7-3.5-2.9-3.1-1.5.3-2.7-.1-3-.9s-1.8-1.4-3.4-1.4C1382.1,463,1382,463.2,1382,467.5Zm4.2-2a1.6,1.6,0,0,1-1.1,1.3c-.6.2-1.1-.4-1.1-1.3s.5-1.5,1.1-1.3A1.6,1.6,0,0,1,1386.2,465.5Zm6.8,3.9c0,.3-.4.8-1,1.1s-1,.1-1-.4a1.1,1.1,0,0,1,1-1.1C1392.6,469,1393,469.2,1393,469.4Z" transform="translate(-1 -0.87)"/>
    <path d="M1357.2,466.6c-1.3,2.4-.3,5.4,1.9,5.4a3.53,3.53,0,0,0,2.8-1.8c.6-1,1.1-1.2,1.1-.4s1,1.7,2.3,2.2c2.2.9,2.2.9-.3,1-2.2.1-2.3.2-.7,1.1,2.8,1.6,4.9-.7,4.5-5-.3-4.1-3.1-5.4-5.2-2.5-1.2,1.5-1.3,1.5-1.9,0C1360.9,464.5,1358.4,464.5,1357.2,466.6Zm3.4,3c-.5,1.3-1,1.4-1.8.6a2.73,2.73,0,0,1-.4-2.8c.5-1.3,1-1.4,1.8-.6A2.73,2.73,0,0,1,1360.6,469.6Zm6.4-1.2a2.53,2.53,0,0,1-.9,2c-1,.7-2.3-1.9-1.4-2.8C1365.8,466.5,1367,467,1367,468.4Z" transform="translate(-1 -0.87)"/>
    <path d="M1370.3,468.5c0,2.2.2,3,.4,1.7a13.39,13.39,0,0,0,0-4C1370.4,465.3,1370.2,466.3,1370.3,468.5Z" transform="translate(-1 -0.87)"/>
    <path d="M1372,468.5c0,1.9.4,3.5.8,3.5s.8-1,.8-2.1.5-2.4,1.2-2.6,1.2.5,1.2,2.4.3,2.4.9,1.5a6.48,6.48,0,0,0,.3-3.8,2.47,2.47,0,0,0-2.8-2.4C1372.3,465,1372,465.5,1372,468.5Z" transform="translate(-1 -0.87)"/>
    <path d="M1395.7,467.1c-.8,2.8.2,4.9,2.2,5,1.3,0,1.2.2-.3.8-1.2.5-1.6,1-.9,1.4,2.5,1.6,4.3-.5,4.3-4.9,0-4-.2-4.4-2.4-4.4A2.61,2.61,0,0,0,1395.7,467.1Zm3.6.5c.9.9-.4,3.5-1.4,2.8a2.53,2.53,0,0,1-.9-2C1397,467,1398.2,466.5,1399.3,467.6Z" transform="translate(-1 -0.87)"/>
    <path d="M1402.4,467.4c-.3,1.4-.3,3,.1,3.5.8,1.4,4.2,1.4,5.1,0,.4-.8,0-.9-1.5-.4-1.2.4-2.1.2-2.1-.4s.9-1.1,2.1-1.1c2.8,0,2.1-3.4-.8-3.8C1403.6,464.9,1402.9,465.5,1402.4,467.4Zm3.6-.4a1.1,1.1,0,0,1-1.1,1c-.5,0-.7-.5-.4-1s.8-1,1.1-1S1406,466.4,1406,467Z" transform="translate(-1 -0.87)"/>
    <path d="M494.1,555.2c-.1,3.4.2,3.8,2.4,3.8s2.5-.4,2.5-3.6c0-2.2-.4-3.3-1.1-2.9a1.76,1.76,0,0,0-.6,1.9,3.71,3.71,0,0,1-.3,2.7c-1,1.4-1.3.8-2.3-3.6C494.4,552.4,494.2,553.2,494.1,555.2Z" transform="translate(-1 -0.87)"/>
    <path d="M500.7,552.7c-1.3,1.2-.7,3.3.8,3.3.8,0,1.5.5,1.5,1.1s-.7.9-1.5.5-1.5-.2-1.5.3,2.5.9,5.5.9c5.4,0,5.5,0,5.5-2.9,0-3.8-2.7-5-4.9-2.1-1.2,1.6-2,1.9-3.1,1.2-1.3-.8-1.2-1,.3-1,1,0,1.5-.5,1.2-1A2.68,2.68,0,0,0,500.7,552.7Zm9,1.9a2,2,0,0,1-1.9.1c-.8-.3-.5-.6.6-.6S510.1,554.3,509.7,554.6Zm-.2,2.4a2.14,2.14,0,0,1-1.6,1,1,1,0,0,1-.9-1c0-.6.7-1,1.6-1S509.8,556.4,509.5,557Z" transform="translate(-1 -0.87)"/>
    <path d="M512.5,552.8c-.9,1-.5,6.2.5,6.2.6,0,1-1.1,1-2.4s.5-2.8,1-3.1,1,.7,1,2.4.5,3.1,1,3.1,1-1.1,1-2.5.5-2.5,1-2.5,1,1.1,1,2.5c0,2.3.3,2.5,5,2.5s5-.2,5-2.5c0-1.4.5-2.5,1-2.5s1,1.1,1,2.5.5,2.5,1,2.5,1-1.1,1-2.5c0-3.4,1.8-3.2,2.3.2.4,2.1.4,1.9.3-.7-.1-3.3-.3-3.5-3.8-3.8s-3.8-.1-3.8,2.8c0,3.8-1.8,4-2.2.3-.3-2.6-3.8-4.8-3.8-2.4,0,.6.8,1.1,1.8,1.2,1.4,0,1.4.2-.3.9-2.6,1.1-3.5,1.2-3.4.2.4-2.4-.4-3.1-4.1-3A12.3,12.3,0,0,0,512.5,552.8ZM526,557a1.1,1.1,0,0,1-1.1,1c-.5,0-.7-.5-.4-1s.8-1,1.1-1S526,556.4,526,557Z" transform="translate(-1 -0.87)"/>
    <path d="M539.1,553.4c-2.7,3.3,1.4,7.6,4.3,4.6.8-.9.6-1.1-1.1-.5-1.4.4-2.3.2-2.3-.4s.9-1.1,2.1-1.1c1.4,0,1.9-.5,1.7-1.7C543.4,552,540.7,551.5,539.1,553.4Z" transform="translate(-1 -0.87)"/>
    <path d="M1368,574.5c0,2.5.5,4.5,1,4.5s1-2,1-4.5-.4-4.5-1-4.5S1368,572,1368,574.5Z" transform="translate(-1 -0.87)"/>
    <path d="M1388.8,571.7a2.75,2.75,0,0,0-1.8,2.9c0,3.3-1.8,3-2.3-.4-.3-2.2-.4-2-.6,1-.1,3.4.2,3.8,2.4,3.8s2.5-.5,2.6-3.3.2-2.8.6-.7c.7,4,2.3,4.8,2.3,1.2a34.68,34.68,0,0,1,.1-3.9C1392.2,571.3,1391,571.1,1388.8,571.7Z" transform="translate(-1 -0.87)"/>
    <path d="M1371.1,575.7c.1,3.7.2,3.7.8.8.3-1.7,1.1-3,1.6-3s1.3,1.3,1.6,3c.6,2.9.7,2.9.8-.8.1-3.3-.2-3.7-2.4-3.7S1371,572.4,1371.1,575.7Z" transform="translate(-1 -0.87)"/>
    <path d="M1377,576.4c0,2.5.5,4.6,1,4.6a.92.92,0,0,0,1-.9c0-.5.9-1.1,2.1-1.4,1.6-.4,2-1.2,1.7-3.4s-.9-2.9-3-3.1C1377.1,571.9,1377,572,1377,576.4Zm4.3-2c.6,1.5-.1,2.6-1.5,2.6-.4,0-.8-.9-.8-2C1379,572.7,1380.5,572.3,1381.3,574.4Z" transform="translate(-1 -0.87)"/>
    <path d="M1667.3,576.8a9.45,9.45,0,0,1,2,4c.4,3,1.7,4,1.7,1.3a9.79,9.79,0,0,1,1.6-4.6c.9-1.4,1.2-2.5.6-2.5s-1.3.8-1.7,1.7c-.6,1.7-.7,1.7-1.9,0a4.36,4.36,0,0,0-2.6-1.7C1666,575,1666.1,575.5,1667.3,576.8Z" transform="translate(-1 -0.87)"/>
    <path d="M1673.6,578.8c-.9,2.7.3,5.2,2.5,5.2,2.4,0,2.5-1.7.2-2.3-1.3-.3-1.2-.5.5-.6s2.2-.6,2-1.9C1678.3,576.7,1674.3,576.4,1673.6,578.8Zm3.4-.4c0,.3-.4.8-1,1.1s-1,.1-1-.4a1.1,1.1,0,0,1,1-1.1C1676.6,578,1677,578.2,1677,578.4Z" transform="translate(-1 -0.87)"/>
    <path d="M1680,578.5a3.4,3.4,0,0,0,1.8,2.4c1.6,1,1.6,1,0,1.1-1,0-1.8.4-1.8,1s.9,1,1.9,1c2.4,0,3.6-2.9,1.6-3.6-.8-.4-1.5-1-1.5-1.6s.5-.6,1-.3,1,.1,1-.4-.9-1.1-2-1.1S1680,577.7,1680,578.5Z" transform="translate(-1 -0.87)"/>
    <path d="M530,632.5c0,2.5.5,4.5,1,4.5s1-2,1-4.5-.4-4.5-1-4.5S530,630,530,632.5Z" transform="translate(-1 -0.87)"/>
    <path d="M505.4,632.4c-.3,1.4-.3,3,.1,3.5.8,1.4,4.2,1.4,5.1,0,.4-.8,0-.9-1.5-.4-1.2.4-2.1.2-2.1-.4s.9-1.1,2.1-1.1c2.8,0,2.1-3.4-.8-3.8C506.6,629.9,505.9,630.5,505.4,632.4Zm4.1-.4c.3.5-.1,1-1,1s-1.3-.5-1-1,.8-1,1-1S509.2,631.4,509.5,632Z" transform="translate(-1 -0.87)"/>
    <path d="M512.1,633.7c.2,3.1.3,3.3.6,1,.7-4.3,2.9-3.3,2.4,1a1,1,0,0,0,.9,1.3c.5,0,1-1.1,1-2.5s.5-2.5,1-2.5,1,1.1,1,2.3c0,2.2.5,2.4,5,2.6l5,.1-.2-3.7c-.1-3.7-.1-3.7-.5-.6-.5,4.1-2.3,4.3-2.3.3,0-2.3-.4-3-2-3-2.5,0-2.7,2-.2,2.1,1.4,0,1.4.2-.3.9-3,1.3-3.5,1.2-3.5-1,0-1.7-.7-2-4-2C512,630,512,630,512.1,633.7Zm12.9.7c0,.3-.4.8-1,1.1s-1,.1-1-.4a1.1,1.1,0,0,1,1-1.1C524.6,634,525,634.2,525,634.4Z" transform="translate(-1 -0.87)"/>
    <path d="M622.7,696.7c-1.4,1.4-.6,3.4,1.8,4.3,2.6,1,3.4,3,1.2,3a4.59,4.59,0,0,1-2.6-1.3c-1.1-1-1.3-.9-.9.3.6,1.9,4.5,2.5,6.4,1,1-.9,1.4-.9,1.4-.1,0,1.4,3.7,1.4,4.6,0,.4-.8,0-.9-1.5-.4-1.2.4-2.1.2-2.1-.4s.9-1.1,2-1.1c2.4,0,2.7-2.8.5-3.7a3.72,3.72,0,0,0-3.3,1c-1.8,1.6-6.2.7-6.2-1.3,0-1.4,1.3-1.3,2.8.2.9.9,1.2.8,1.2-.5C628,696,624.1,695.2,622.7,696.7ZM633,700a1.1,1.1,0,0,1-1.1,1c-.5,0-.7-.5-.4-1s.8-1,1.1-1S633,699.4,633,700Z" transform="translate(-1 -0.87)"/>
    <path d="M639,697c0,.4-.6.7-1.2.6-1.6-.1-1.8.5-1.8,4.4,0,1.6.5,3,1.1,3s.9-.9.6-1.9a4.86,4.86,0,0,1,.4-3.2q.9-1.5.9,1.8c0,2.8.3,3.3,2.5,3.3s2.5-.4,2.5-3.3c0-2.4-.6-3.5-2.5-4.4C640.1,696.7,639,696.5,639,697Zm2.7,5.7c-.3,1-.5.4-.5-1.2s.2-2.4.5-1.8A7.56,7.56,0,0,1,641.7,702.7Z" transform="translate(-1 -0.87)"/>
    <path d="M645.1,701.7c.1,3.7.2,3.7.8.8.3-1.7,1.1-3,1.6-3s1.3,1.3,1.6,3c.6,2.9.7,2.9.8-.8.1-3.3-.2-3.7-2.4-3.7S645,698.4,645.1,701.7Z" transform="translate(-1 -0.87)"/>
    <path d="M651.6,699.6c-1.1,2.9-.6,4.5,1.7,5.4,2,.8,2,.9.3.9s-1.8.3-.7,1.3,1.6.9,2.9-.7a4.41,4.41,0,0,1,3.6-1.7c2.8.6,4-1.2,2.1-3.2-.9-.9-1.2-1.6-.6-1.6a1.1,1.1,0,0,0,1.1-1c0-.6-.9-1-2-1a1.8,1.8,0,0,0-2,2c0,1.1.7,2,1.5,2s1.5.5,1.5,1.1-.7.8-1.6.5a15.63,15.63,0,0,0-2-.6c-.2,0-.4-1.1-.4-2.5,0-2-.5-2.5-2.4-2.5C653.3,698,651.9,698.7,651.6,699.6ZM655,702c0,1.1-.4,2-1,2s-1-.9-1-2,.5-2,1-2S655,700.9,655,702Z" transform="translate(-1 -0.87)"/>
    <path d="M252.5,697.7c.3,1,.9,3,1.2,4.5.8,4,2.8,3.4,4.1-1.1,1.5-4.7,1.5-5.1.2-5.1-.5,0-1,.9-1,1.9,0,3-1.9,3.5-2.6.6-.3-1.4-1.1-2.5-1.6-2.5S252.1,696.8,252.5,697.7Z" transform="translate(-1 -0.87)"/>
    <path d="M264.9,700.2c-.2,3.1-.3,3.5-.6,1.5-.5-3.2-2.9-4.6-4.6-2.7-1,1-.8,1.2.5.7,1-.3,2-.2,2.3.2s-.4,1.1-1.5,1.4a2.53,2.53,0,0,0-2,2.1c0,1.2,1,1.6,4,1.6h4v-4.5C267,694.8,265.1,694.6,264.9,700.2Zm-1.9,2.2c0,.3-.4.8-1,1.1s-1,.1-1-.4a1.1,1.1,0,0,1,1-1.1C262.6,702,263,702.2,263,702.4Z" transform="translate(-1 -0.87)"/>
    <path d="M275,697c0,.5-.7,1-1.5,1a2.41,2.41,0,0,0-2.1,1.5c-.6,1.4-.8,1.3-2-.2s-1.3-1.4-1.4,1.9c0,2.1.5,3.8,1.1,3.8s.8-.4.4-.9a1.22,1.22,0,0,1,.5-1.6c.5-.3,1,.1,1,.9,0,1,.9,1.6,2.5,1.6,2.3,0,2.5-.4,2.5-4.5,0-2.5-.2-4.5-.5-4.5S275,696.4,275,697Zm-.7,3.6c.9.9-.4,3.5-1.4,2.8a2.53,2.53,0,0,1-.9-2C272,700,273.2,699.5,274.3,700.6Z" transform="translate(-1 -0.87)"/>
    <path d="M297,696.8a1.37,1.37,0,0,1-1.5,1.2,3.2,3.2,0,0,0-2.3,1.6c-.8,1.5-1,1.5-1.5,0-1.4-3.6-6.4-.4-5.2,3.4.7,2.1,3.9,2.7,5.1.9.4-.8,0-.9-1.5-.4-1.2.4-2.1.2-2.1-.4,0-1.7,4.7-1.3,5.4.4a3.28,3.28,0,0,0,3,1.5c2.3,0,2.4-.3,1.9-4.3S297,694.4,297,696.8Zm-6.5,3.2c.3.5-.1,1-1,1s-1.3-.5-1-1,.8-1,1-1S290.2,699.4,290.5,700Zm6.3,1.7c-.4,2.2-2.2,2-2.6-.1a1.2,1.2,0,0,1,1.3-1.6A1.27,1.27,0,0,1,296.8,701.7Z" transform="translate(-1 -0.87)"/>
    <path d="M300.7,696.6c-1.4,1.4-.7,2.6.8,1.4,1.2-1,1.5-1,1.5.2a4.15,4.15,0,0,1-1.2,2.6c-.6.6-.9,1.5-.5,1.9,1,.9,3.7-2.8,3.4-4.7C304.5,696.4,301.8,695.5,300.7,696.6Z" transform="translate(-1 -0.87)"/>
    <path d="M283.2,700.6c.4,4.9,2.3,5.5,2.2.7-.1-2-.6-3.9-1.3-4.1S283,698.1,283.2,700.6Z" transform="translate(-1 -0.87)"/>
    <path d="M277.4,699.1c-.5.9-.2,1,.9.6.9-.3,1.9-.2,2.2.2s-.4,1.1-1.5,1.4c-3.2.8-2.5,3.7.9,3.7,2.7,0,2.8-.2,2.2-3.2C281.4,698.4,278.8,696.9,277.4,699.1Zm3.6,3.3c0,.3-.4.8-1,1.1s-1,.1-1-.4a1.1,1.1,0,0,1,1-1.1C280.6,702,281,702.2,281,702.4Z" transform="translate(-1 -0.87)"/>
    <path d="M1346,700.3c0,4.3.1,4.4,3.5,4.5,3.9.2,5.6-1.5,3.2-3.3-1.8-1.3-2.4-3-.7-2,.6.3,1,.1,1-.4s-.9-1.1-2-1.1a1.8,1.8,0,0,0-2,2c0,1.1.7,2,1.5,2s1.5.5,1.5,1.1-.7.8-1.6.5a15.63,15.63,0,0,0-2-.6c-.2,0-.4-1.6-.4-3.5s-.4-3.5-1-3.5S1346,698,1346,700.3Z" transform="translate(-1 -0.87)"/>
    <path d="M1358,700.5V705l5.3-.1c2.8-.1,5.4-.5,5.7-.8s1.6-.1,3,.6c2.1,1.1,2.2,1.3.6,1.3s-1.7.3-.8,1.2c1.9,1.9,4.2-.9,4.2-5.3,0-3.5-.3-3.9-2.4-3.9-1.3,0-2.7.6-2.9,1.2-.4,1-.8,1-1.5,0-1.6-2.3-4.7-1-5,2.1-.2,1.9-.9,2.7-2.3,2.7-1.9,0-2.3-1.2-1.9-5.8.1-1.2-.3-2.2-.9-2.2S1358,698,1358,700.5Zm10,1.5c0,1.1-.4,2-.9,2-1.1,0-2.2-2.6-1.4-3.4C1366.9,699.4,1368,700.1,1368,702Zm6,0c0,1.1-.4,2-1,2s-1-.9-1-2,.5-2,1-2S1374,700.9,1374,702Z" transform="translate(-1 -0.87)"/>
    <path d="M1394,697c0,.5-.7,1-1.5,1a2.41,2.41,0,0,0-2.1,1.5c-.6,1.4-.8,1.3-2-.2-1.7-2.4-4.9-.6-4.9,2.8a2.78,2.78,0,0,0,4.9,1.9c.8-.9.6-1.1-1.1-.5-1.4.4-2.3.2-2.3-.4,0-1.7,4-1.3,4.6.4a3.53,3.53,0,0,0,3,1.5c2.2,0,2.4-.4,2.4-4.5,0-2.5-.2-4.5-.5-4.5S1394,696.4,1394,697Zm-.7,3.6c.9.9-.4,3.5-1.4,2.8a2.53,2.53,0,0,1-.9-2C1391,700,1392.2,699.5,1393.3,700.6Z" transform="translate(-1 -0.87)"/>
    <path d="M1400.3,700.5c0,2.7.2,3.8.4,2.2a20.89,20.89,0,0,0,0-5C1400.5,696.5,1400.3,697.7,1400.3,700.5Z" transform="translate(-1 -0.87)"/>
    <path d="M1409.5,696.9a1.13,1.13,0,0,0,.4,1.5c.5.4,1.1,0,1.4-.6s.8-1,1.2-.5.3,1.3-.3,1.9c-1.3,1.3-1.6,3.8-.4,3.8,1,0,2.9-4.4,2.4-5.8S1410.4,695.6,1409.5,696.9Z" transform="translate(-1 -0.87)"/>
    <path d="M1377.4,699.4a13.82,13.82,0,0,0-.2,4.8c.2,2.5.8,3.3,2.3,3.3,1.7,0,2-.8,2.3-4.8.3-4.2.1-4.7-1.8-4.7A2.87,2.87,0,0,0,1377.4,699.4Zm3.2,3.2c-.5,1.3-1,1.4-1.8.6a2.73,2.73,0,0,1-.4-2.8c.5-1.3,1-1.4,1.8-.6A2.73,2.73,0,0,1,1380.6,702.6Zm.1,3a2,2,0,0,1-1.9.1c-.8-.3-.5-.6.6-.6S1381.1,705.3,1380.7,705.6Z" transform="translate(-1 -0.87)"/>
    <path d="M1403.1,701.7c.2,3,.3,3.2.6,1,.5-3.4,2.3-3.6,2.3-.2,0,1.4.5,2.5,1.1,2.5s.9-1.4.7-3.3c-.2-2.4-.8-3.3-2.5-3.5C1403.2,697.9,1403,698.3,1403.1,701.7Z" transform="translate(-1 -0.87)"/>
    <path d="M1650,693.5c0,4.3.1,4.5,2.8,4.5a6.71,6.71,0,0,0,3.9-1.1c.8-.8,1.3-.8,1.7,0,1.1,1.8,4.6,1.3,4.6-.7.1-1.6.1-1.6,1.4,0,1.5,2,4.1,2.4,5.2.7.4-.8,0-.9-1.5-.4-1.2.4-2.1.2-2.1-.4s.9-1.1,2-1.1c2.3,0,2.7-2.8.5-3.6a3.38,3.38,0,0,0-3.1.7c-1.3,1-1.7,1-2.4,0-.5-.9-1.7-1.1-3.3-.7s-2.7.1-3.1-.9-1.8-1.5-3.6-1.5C1650.1,689,1650,689.2,1650,693.5Zm5.4-1.3a2.45,2.45,0,0,1-.3,3.2c-2.1,2.5-3.1,1.9-3.1-2C1652,689.7,1653.4,689.2,1655.4,692.2Zm13.1.8c.3.5-.1,1-1,1s-1.3-.5-1-1,.8-1,1-1S1668.2,692.4,1668.5,693Zm-6.5,2c0,1.1-.4,2-.9,2a2,2,0,0,1-1.6-3C1660.5,692.3,1662,692.9,1662,695Z" transform="translate(-1 -0.87)"/>
    <path d="M1671.4,692.1c-.4.7.4,2,1.7,3.1l2.4,1.9-2.4-.6c-1.6-.5-2.1-.4-1.7.4,1,1.6,4.6,1.3,4.6-.4a3.53,3.53,0,0,0-1.7-2.4c-1.7-1-1.7-1,0-1.1,1,0,1.5-.5,1.2-1A2.58,2.58,0,0,0,1671.4,692.1Z" transform="translate(-1 -0.87)"/>
    <path d="M1680,694.4c0,3.2.3,3.6,2.5,3.6s2.5-.4,2.4-3.8c-.1-2-.3-2.8-.6-1.7-1,4.4-1.3,5-2.3,3.6a3.71,3.71,0,0,1-.3-2.7,1.76,1.76,0,0,0-.6-1.9C1680.4,691.1,1680,692.2,1680,694.4Z" transform="translate(-1 -0.87)"/>
    <path d="M1686.4,692.1c-.4.7.4,2,1.7,3.1l2.4,1.9-2.4-.6c-1.6-.5-2.1-.4-1.7.4,1.1,1.7,4.6,1.3,4.6-.4a2.41,2.41,0,0,0-1.5-2.1c-.8-.4-1.5-1-1.5-1.5s.7-.5,1.7-.2,1.4.3.9-.5A2.57,2.57,0,0,0,1686.4,692.1Z" transform="translate(-1 -0.87)"/>
    <path d="M1692.4,693.4c-.8,3.5.2,4.6,4.1,4.4,3-.1,3.5-.5,3.5-2.5,0-1.2.5-2.3,1-2.3a1,1,0,0,0,1-1.1c0-.6-.8-.9-1.7-.7-1.2.2-1.7,1.1-1.5,2.6.2,1.2-.1,2.2-.7,2.2a11,11,0,0,0-2.5.6c-.9.3-1.6.1-1.6-.5s.9-1.1,2.1-1.1c1.5,0,1.9-.4,1.5-1.6a15.63,15.63,0,0,1-.6-2c0-.2-.9-.4-2-.4A2.83,2.83,0,0,0,1692.4,693.4Z" transform="translate(-1 -0.87)"/>
    <path d="M1681.7,704.4a2,2,0,0,1-2.5.9c-2.6-.6-4,1.7-1.9,3.2s2.2,2.6.2,1.9c-.8-.4-1.5-.1-1.5.5,0,1.5,3.7,1.4,4.6-.1.4-.6,0-1.6-.9-2.3-2.2-1.6-2.1-2.1.3-2.1,1.5,0,2,.7,2,2.8,0,1.5.4,2.8.9,2.8.9,0,.8-7.7-.1-8.6C1682.5,703.1,1682,703.6,1681.7,704.4Z" transform="translate(-1 -0.87)"/>
    <path d="M1685.7,703.7c-1.3,1.3-.7,2.5.7,1.4.9-.8,1.6-.8,2-.2a1.1,1.1,0,0,1-.4,1.6c-.5.3-.9,1.8-.9,3.3.1,2.1.2,2.2.6.7a9.31,9.31,0,0,1,1.4-3c1.6-1.6,1-4.5-.9-4.5A3.92,3.92,0,0,0,1685.7,703.7Z" transform="translate(-1 -0.87)"/>
    <path d="M1661.4,706.4c-1,2.6.1,5.1,2.2,5.4s3.3-1.8,2.6-5.1C1665.8,704.6,1662.2,704.4,1661.4,706.4Zm3.1.6c.3.5.1,1-.4,1a1.1,1.1,0,0,1-1.1-1c0-.6.2-1,.4-1S1664.2,706.4,1664.5,707Zm.5,2.4c0,1.1-1.9,1.5-2.5.6-.3-.5.1-1,.9-1S1665,709.2,1665,709.4Z" transform="translate(-1 -0.87)"/>
    <path d="M1668,707a3.83,3.83,0,0,1-.1,3.3c-.7,1.1-.6,1.7.1,1.7a1.13,1.13,0,0,0,1-1.2c0-.9.3-.9,1.2,0,1.9,1.9,3,1.4,1.7-.9-.8-1.5-.8-2.4,0-3.2s1.1-.4,1.1,1.5c0,1.5.5,3,1,3.3s1-.8,1-2.9c0-3.4-.1-3.5-3.9-3.3C1667.8,705.4,1667.3,705.7,1668,707Z" transform="translate(-1 -0.87)"/>
    <path d="M493.1,700.4c.3,4.4,1.9,6.7,1.9,2.7,0-1.3.8-2.1,2.3-2.3a2.24,2.24,0,0,0,2.2-2.3c0-1.5-.8-2.1-3.3-2.3l-3.3-.3Zm4.7-1.6c.2.7-.3,1.2-1.2,1.2a1.58,1.58,0,0,1-1.6-1.6C495,696.7,497.2,697,497.8,698.8Z" transform="translate(-1 -0.87)"/>
    <path d="M540.8,697.2c-.2.6-2.1,1.1-4.1,1-3.6-.1-3.7,0-3.7,3.3,0,1.9.5,3.5,1,3.5s1-1.1,1-2.4c0-3.5,1.8-4.2,2.2-.9.2,2.2.9,2.9,3.1,3.1,2.6.3,2.7.2,2.7-4.2C543,696.4,541.7,694.4,540.8,697.2Zm.2,4.2a2.53,2.53,0,0,1-.9,2c-1,.7-2.3-1.9-1.4-2.8C539.8,699.5,541,700,541,701.4Z" transform="translate(-1 -0.87)"/>
    <path d="M501.4,699.1c-.5.9-.2,1,.9.6s1.7-.2,1.7.3-.6,1-1.4,1c-1.5,0-2.8,2.4-1.9,3.4a6.45,6.45,0,0,0,3,.6c2.1,0,2.4-.4,2.1-3.2C505.5,698.4,502.9,696.8,501.4,699.1ZM504,703a1.1,1.1,0,0,1-1.1,1c-.5,0-.7-.5-.4-1s.8-1,1.1-1S504,702.4,504,703Z" transform="translate(-1 -0.87)"/>
    <path d="M507.7,698.7c-1.3,1.2-.7,3.3.8,3.3.8,0,1.5.5,1.5,1.1s-.7.9-1.5.5-1.5-.1-1.5.4c0,1.4,3.7,1.2,4.6-.2.4-.6,0-1.6-.9-2.3-2.2-1.6-2.2-2.6,0-1.8,1.1.4,1.4.3.9-.5A2.59,2.59,0,0,0,507.7,698.7Z" transform="translate(-1 -0.87)"/>
    <path d="M513,700c0,1.1.7,2,1.5,2s1.5.5,1.5,1.1-.7.9-1.5.5-1.5-.1-1.5.4c0,1.4,3.7,1.2,4.6-.1.4-.7-.4-2-1.7-3.1-1.8-1.5-1.9-1.8-.6-1.4a14.23,14.23,0,0,0,2.8.6c.5,0,.9,1.1.9,2.5,0,2.7.9,3.2,2.8,1.3.9-.9,1.2-.9,1.2,0,0,2.1,1.8,1.3,2.3-1.1l.4-2.2.8,2.3c1.1,3.4,4.9,2.6,5.3-1.1.4-3.1-2-4.6-4.3-2.7-1.2,1-1.5,1-1.5-.1-.1-.9-.5-.8-1.5.5-1.3,1.7-1.5,1.8-1.5.3,0-2.2-1.7-2.2-2.3,0-.4,1.5-.5,1.5-.6.2-.1-1.1-1.2-1.6-3.6-1.7C513.6,698.1,513,698.4,513,700Zm17.6,2.6c-.5,1.3-1,1.4-1.8.6a2.73,2.73,0,0,1-.4-2.8c.5-1.3,1-1.4,1.8-.6A2.73,2.73,0,0,1,530.6,702.6Z" transform="translate(-1 -0.87)"/>
    <path d="M850,700.4c0,2.5.5,4.6,1,4.6s1-.9,1-1.9c0-1.3.8-2.1,2.3-2.3a2.24,2.24,0,0,0,2.2-2.3c0-1.5-.8-2.1-3.2-2.3C850,695.9,850,695.9,850,700.4Zm5-1.9a1.5,1.5,0,1,1-1.5-1.5A1.54,1.54,0,0,1,855,698.5Z" transform="translate(-1 -0.87)"/>
    <path d="M868.7,696.7c-1.1,1-.8,8.3.3,8.3.8,0,1.3-3.3.9-6.7,0-.4.8-1,1.8-1.4,1.6-.7,1.6-.8-.3-.8A3.86,3.86,0,0,0,868.7,696.7Z" transform="translate(-1 -0.87)"/>
    <path d="M874.3,700.5c0,2.7.2,3.8.4,2.2a20.89,20.89,0,0,0,0-5C874.5,696.5,874.3,697.7,874.3,700.5Z" transform="translate(-1 -0.87)"/>
    <path d="M886,700.4c0,2.5.5,4.6,1,4.6s1-.9,1-1.9c0-1.3.8-2.1,2.3-2.3a2.24,2.24,0,0,0,2.2-2.3c0-1.5-.8-2.1-3.2-2.3C886,695.9,886,695.9,886,700.4Zm4.8-1.6c.2.7-.3,1.2-1.2,1.2a1.58,1.58,0,0,1-1.6-1.6C888,696.7,890.2,697,890.8,698.8Z" transform="translate(-1 -0.87)"/>
    <path d="M857.8,701.6c-.2,1.9,0,3.4.4,3.4s.8-1.1.8-2.5c0-3.3,1.6-3.2,2.4.1.5,1.9,1.2,2.5,2.9,2.2s2.2-1,2.2-3.3c0-2.8-.2-3-4.1-3.2C858.3,698.1,858.2,698.2,857.8,701.6Zm7.6.7c-.3.9-1,1.7-1.5,1.7-1.1,0-1.2-3.4-.2-4.4S866.1,700.5,865.4,702.3Z" transform="translate(-1 -0.87)"/>
    <path d="M871.9,698.2c-.8,2.2-.8,6.8,0,6.8.6,0,1.1-1.6,1.1-3.5s-.2-3.5-.5-3.5A.85.85,0,0,0,871.9,698.2Z" transform="translate(-1 -0.87)"/>
    <path d="M877.1,699.4c-2.7,3.3,1.4,7.6,4.3,4.6.8-.9.6-1.1-1.1-.5-1.4.4-2.3.2-2.3-.4s.9-1.1,2.1-1.1c1.4,0,1.9-.5,1.7-1.7C881.4,698,878.7,697.5,877.1,699.4Z" transform="translate(-1 -0.87)"/>
    <path d="M894.4,699.2c-.5.8-.2.9.9.5s1.7-.2,1.7.3-.6,1-1.4,1c-1.5,0-2.8,2.4-1.9,3.4,1.1,1.1,6.5.7,5.8-.5-.4-.6.2-.5,1.4.3,1.8,1.1,1.9,1.3.4,1.9-1.1.3-1.3.8-.6,1.2,2.5,1.6,4.3-.5,4.3-4.9,0-3.8-.3-4.4-2-4.4a3.3,3.3,0,0,0-2.9,2.2l-.8,2.2-.5-2.2C898.1,697.8,895.6,697.3,894.4,699.2Zm9.1,2.6c0,1.8-2,1.5-2.3-.4-.3-1,.1-1.5,1-1.2A2.06,2.06,0,0,1,903.5,701.8ZM897,703a1,1,0,0,1-1,1,1.08,1.08,0,0,1-1-1,1,1,0,0,1,1-1A.94.94,0,0,1,897,703Z" transform="translate(-1 -0.87)"/>
    <path d="M906.4,699.4c-1.5,3.9,2.3,7.4,5,4.6.8-.9.6-1.1-1.1-.5-1.4.4-2.3.2-2.3-.4s.9-1.1,2.1-1.1c1.4,0,1.9-.5,1.7-1.8C911.4,698,907.2,697.3,906.4,699.4Zm3.6.6a1.1,1.1,0,0,1-1.1,1c-.5,0-.7-.5-.4-1s.8-1,1.1-1S910,699.4,910,700Z" transform="translate(-1 -0.87)"/>
    <path d="M1141.4,698.5a9.45,9.45,0,0,1,1.6,4.5c0,1.1.5,2,1,2s1-.9,1-2a9.45,9.45,0,0,1,1.6-4.5c.9-1.4,1.2-2.5.6-2.5a3.68,3.68,0,0,0-2.2,1.7c-1,1.7-1,1.7-2,0a3.68,3.68,0,0,0-2.2-1.7C1140.2,696,1140.5,697.1,1141.4,698.5Z" transform="translate(-1 -0.87)"/>
    <path d="M1147.7,698.6a5.64,5.64,0,0,0-.7,3.1c0,2.8,2.6,4.1,4.3,2.3,1-1,.8-1.2-.5-.7-1,.3-2,.2-2.3-.3s.3-1,1.5-1c1.5,0,2-.5,1.8-1.7C1151.5,698.4,1148.9,697.4,1147.7,698.6Zm2.8,1.4c.3.5-.1,1-1,1s-1.3-.5-1-1,.8-1,1-1S1150.2,699.4,1150.5,700Z" transform="translate(-1 -0.87)"/>
    <path d="M1153.4,699.1c-.4.7.4,2,1.7,3.1l2.4,1.9-2.4-.6c-1.6-.5-2.1-.4-1.7.4,1.2,1.9,4.6,1.3,4.6-.9,0-1.1-.7-2-1.5-2s-1.5-.4-1.5-1,.7-.6,1.7-.3,1.4.3.9-.5A2.57,2.57,0,0,0,1153.4,699.1Z" transform="translate(-1 -0.87)"/>
    <path d="M1507,700.5c0,2.6.5,4.5,1.1,4.5s.9-1.2.7-3.1l-.5-3.1,1.8,2.3a10.79,10.79,0,0,1,1.9,3.1.91.91,0,0,0,1,.8c.6,0,.9-2.1.9-4.8-.2-4.2-.2-4.4-.8-1.4l-.6,3.4-1.8-3.1C1508.2,694.8,1507,695.2,1507,700.5Z" transform="translate(-1 -0.87)"/>
    <path d="M1515.6,699.8c-1,3,.4,5.3,2.8,5,3.1-.4,3-6.2-.1-6.6A2.16,2.16,0,0,0,1515.6,699.8Zm3.7.8c.8.8-.3,3.4-1.4,3.4-.5,0-.9-.9-.9-2C1517,700.1,1518.1,699.4,1519.3,700.6Z" transform="translate(-1 -0.87)"/>
    <path d="M1822,700.5c0,2.5.4,4.5.9,4.5s.7-1.4.5-3-.3-3,0-3,1.2,1.3,2.1,3c2.2,4.3,3.5,3.7,3.5-1.5,0-2.5-.4-4.5-.8-4.5s-.7,1.3-.4,3,.2,3-.2,3-1.2-1.4-2.1-3C1823.3,694.7,1822,695.3,1822,700.5Z" transform="translate(-1 -0.87)"/>
    <path d="M1830.4,699.4c-1.1,2.9,0,5.1,2.6,5.1,2.1,0,2.5-.5,2.5-3s-.5-3.1-2.3-3.3A2.5,2.5,0,0,0,1830.4,699.4Zm3.6,2.6c0,1.1-.4,2-1,2s-1-.9-1-2,.5-2,1-2S1834,700.9,1834,702Z" transform="translate(-1 -0.87)"/>
    <path d="M69.4,727.2a9.11,9.11,0,0,1,1.6,4.5c0,1.3.5,2.3,1,2.3s1-.7,1-1.5a13.76,13.76,0,0,1,1.5-4.5c1.6-3.2.3-4.2-1.5-1.3-1,1.7-1,1.7-2,0-.6-.9-1.6-1.7-2.1-1.7S68.6,726,69.4,727.2Z" transform="translate(-1 -0.87)"/>
    <path d="M75.4,729.4c-.9,3.7,0,4.4,5.6,4.4,4.2,0,5-.3,5-1.9a1.72,1.72,0,0,0-1.5-1.9c-.8,0-1.5-.4-1.5-1s.7-.7,1.5-.4,1.5.1,1.5-.5c0-1.5-3.7-1.4-4.4.1-.5,1-.7,1-1.2,0C79.4,726,76.1,726.8,75.4,729.4Zm9.6,2.9a21.25,21.25,0,0,1-4,.2c-4.3,0-5.4-1.1-1.7-1.7C81.1,730.5,85,731.5,85,732.3Z" transform="translate(-1 -0.87)"/>
    <path d="M504,771.5c0,4.5,0,4.5,3.6,4.5,2.1,0,3.3-.4,2.9-1a2.44,2.44,0,0,0-2.2-.8,1.69,1.69,0,0,1-2-1c-.3-.7.4-1.2,1.6-1.2s2.1-.5,2.1-1-.9-1-2-1c-3,0-2.4-1.8.8-2.3,2.2-.3,2-.4-1-.6L504,767Z" transform="translate(-1 -0.87)"/>
    <path d="M530.1,771.7c.1,5.3.6,4.9,1.1-1,.2-2,0-3.7-.4-3.7S530,769.1,530.1,771.7Z" transform="translate(-1 -0.87)"/>
    <path d="M512.1,772.7c.1,2.8.3,3.1.6,1.3.7-4,2.3-4.8,2.3-1.2,0,1.8.5,3.2,1,3.2s1-1.1,1-2.5c0-3.4,1.8-3.2,2.3.2.3,2.3.4,2.1.6-1,.1-3.7.1-3.7-3.9-3.7S512,769,512.1,772.7Z" transform="translate(-1 -0.87)"/>
    <path d="M521.4,770.2c-.5.8-.2.9.9.5.9-.3,1.9-.2,2.2.2s-.5,1.1-1.6,1.4c-3.3.9-1.7,3.2,2.4,3.5,3.6.3,3.7.3,3.7-3.3,0-2.3-.4-3.4-1.1-3a1.76,1.76,0,0,0-.6,1.9,3.33,3.33,0,0,1-.4,2.7c-.6,1-.9.4-.9-1.9,0-2.5-.4-3.2-1.9-3.2A3.3,3.3,0,0,0,521.4,770.2Zm3.6,3.2c0,.3-.4.8-1,1.1s-1,.1-1-.4a1.1,1.1,0,0,1,1-1.1C524.6,773,525,773.2,525,773.4Z" transform="translate(-1 -0.87)"/>
    <path d="M490,784.5c0,2.5.4,4.5.9,4.5s.6-1.2.4-2.8l-.4-2.7,2.3,2.7c1.3,1.6,2.7,2.8,3.1,2.8s.7-2.1.7-4.6-.4-4.3-.9-4-.6,1.8-.4,3.3l.5,2.8-2.1-2.5c-1.1-1.4-2.1-2.8-2.1-3.3s-.4-.7-1-.7S490,782,490,784.5Z" transform="translate(-1 -0.87)"/>
    <path d="M508.3,784.5c0,2.7.2,3.8.4,2.2a20.89,20.89,0,0,0,0-5C508.5,780.5,508.3,781.7,508.3,784.5Z" transform="translate(-1 -0.87)"/>
    <path d="M510.7,781.3a10.37,10.37,0,0,0,.3,4.8c.4,1.9.8,2.7.9,1.8s.4-3.1.7-4.8C513.2,780,511.7,778.6,510.7,781.3Z" transform="translate(-1 -0.87)"/>
    <path d="M514.3,784.5c0,2.7.2,3.8.4,2.2a20.89,20.89,0,0,0,0-5C514.5,780.5,514.3,781.7,514.3,784.5Z" transform="translate(-1 -0.87)"/>
    <path d="M504.7,781.7c-.6,1.1.4,7.3,1.2,7.3s.8-6.7-.1-7.5A.67.67,0,0,0,504.7,781.7Z" transform="translate(-1 -0.87)"/>
    <path d="M528,784.9c0,2.3.5,4.1,1,4.1s1-1.5,1-3.4-.4-3.8-1-4.1S528,782.5,528,784.9Z" transform="translate(-1 -0.87)"/>
    <path d="M499.2,783.2a3.9,3.9,0,0,0,.2,5.7c1.1.9,1.8.8,3-.4a5.32,5.32,0,0,0,1.6-2.9c0-1.2-1.9-3.6-3-3.6A4.13,4.13,0,0,0,499.2,783.2ZM502,786c0,1.1-.4,2-1,2s-1-.9-1-2,.5-2,1-2S502,784.9,502,786Z" transform="translate(-1 -0.87)"/>
    <path d="M517.1,783.4c-2.6,3.2-.9,5.1,4.7,5.3,5.2.3,5.2.3,5.2-2.7,0-3.3-2.4-5-4.3-3.1-.8.8-.6,1.1.9,1.1s1.2.5-1.4,2.2c-2.3,1.4-3.6,1.8-4.4,1-1.4-1.4-.1-3.2,1.9-2.5,1,.4,1.4.2,1.1-.7C520.2,782,518.5,781.7,517.1,783.4ZM525,787a1.1,1.1,0,0,1-1.1,1c-.5,0-.7-.5-.4-1s.8-1,1.1-1S525,786.4,525,787Z" transform="translate(-1 -0.87)"/>
    <path d="M534.7,782.7c-.4.3-.7,1.9-.7,3.4,0,4.1,3.8,4.7,5.3.9.4-1.2.6-1.1.6.2.1,2.8,2.1,2.1,2.1-.7,0-1.4.5-2.5,1-2.5s1,1.1,1,2.5.5,2.5,1,2.5c1.1,0,1.3-3,.4-5.4-.8-2.1-4-2.1-5.2,0-.8,1.5-1,1.5-1.5,0A2.49,2.49,0,0,0,534.7,782.7ZM538,786c0,1.1-.7,2-1.5,2s-1.5-.9-1.5-2,.7-2,1.5-2S538,784.9,538,786Z" transform="translate(-1 -0.87)"/>
    <path d="M531,786c0,1.6.5,3,1,3s1-1.4,1-3-.4-3-1-3S531,784.3,531,786Z" transform="translate(-1 -0.87)"/>
    <path d="M51,816.5c0,2.5.5,4.5,1,4.5s1-.6,1-1.4.9-1.6,2-1.9a2.74,2.74,0,0,0,.4-5.1C51.8,811.2,51,811.9,51,816.5Zm4-1.5a1,1,0,0,1-1,1,1.08,1.08,0,0,1-1-1,1,1,0,0,1,1-1A.94.94,0,0,1,55,815Z" transform="translate(-1 -0.87)"/>
    <path d="M90,816.9c0,4.6.1,4.8,2.6,4.5,6.5-.7,5.5-9.4-1-9.4C90.4,812,90,813.1,90,816.9Zm4.8-1.7c1.4,1.4-.2,4.8-2.3,4.8q-1.5,0-1.5-3C91,813.9,92.7,813.1,94.8,815.2Z" transform="translate(-1 -0.87)"/>
    <path d="M98.4,813.3a14.43,14.43,0,0,0-.2,4.9c.3,2.9.6,3.3,2.8,3,3.5-.5,4-1.2,3.1-5.2-.5-2.6-1.3-3.6-2.9-3.8A2.53,2.53,0,0,0,98.4,813.3ZM102,815a1,1,0,0,1-1,1,1.08,1.08,0,0,1-1-1,1,1,0,0,1,1-1A.94.94,0,0,1,102,815Zm.2,3.5a1.6,1.6,0,0,1-1.1,1.3c-.6.2-1.1-.4-1.1-1.3s.5-1.5,1.1-1.3A1.6,1.6,0,0,1,102.2,818.5Z" transform="translate(-1 -0.87)"/>
    <path d="M70.7,813.6c-.7.7.2,6.5,1.2,7.7.4.4.7-1.1.6-3.3C72.4,814,71.8,812.5,70.7,813.6Z" transform="translate(-1 -0.87)"/>
    <path d="M76.8,814.2c-.6,1.8.3,6.8,1.3,6.8.5,0,.9-1.8.9-4C79,813.3,77.7,811.5,76.8,814.2Z" transform="translate(-1 -0.87)"/>
    <path d="M59.2,815.2c-1.1,1.1-1.7,5.8-.8,5.8a11.8,11.8,0,0,1,1.9.6c2.2.8,4.1-3,2.7-5.6C61.8,813.7,60.9,813.5,59.2,815.2ZM62,818c0,1.1-.4,2-.9,2a2,2,0,0,1-1.6-3C60.5,815.3,62,815.9,62,818Z" transform="translate(-1 -0.87)"/>
    <path d="M65.3,815.6c-.4,1.1.1,2.2,1.3,3.2,1.6,1.2,1.6,1.4.2.9-1.9-.7-2.5.8-.8,1.8,2,1.2,3.9-1.4,3.1-4.2C68.2,814.1,66.3,813.2,65.3,815.6Z" transform="translate(-1 -0.87)"/>
    <path d="M80.7,814.6c-1.4,1.4-.7,6.2,1,6.8,2.3.9,3.5-.6,3.1-4C84.5,814.6,82.2,813.1,80.7,814.6ZM84,818c0,2.1-1.5,2.7-2.5,1a2,2,0,0,1,1.6-3C83.6,816,84,816.9,84,818Z" transform="translate(-1 -0.87)"/>
    <path d="M1231.9,813.6c-1.1,1.4-1,1.8.6,3a6.26,6.26,0,0,0,2.7,1.4.92.92,0,0,1,.8,1c0,1.4-2.8,1.2-3.3-.3-.2-.6-.8-.9-1.3-.4s0,1.5.8,2.4c1.5,1.5,1.9,1.5,4.1.1,2-1.4,2.4-1.4,3.3-.1,1.4,2.3,4.4.5,4.4-2.7,0-3.8-2.9-4.8-5.2-1.8-1,1.3-1.8,1.7-1.8,1a1.34,1.34,0,0,0-1.4-1.2,3,3,0,0,1-2.2-1.1c-.5-.9.1-1,2.1-.5,2.5.6,2.7.5,1.6-.8C1235.4,811.6,1233.6,811.6,1231.9,813.6Zm10.8,3a2,2,0,0,1-1.9.1c-.8-.3-.5-.6.6-.6S1243.1,816.3,1242.7,816.6Zm0,3a2,2,0,0,1-1.9.1c-.8-.3-.5-.6.6-.6S1243.1,819.3,1242.7,819.6Z" transform="translate(-1 -0.87)"/>
    <path d="M1245.7,812.7c-1.1,1-.8,8.3.3,8.3.6,0,1-2,1-4.5C1247,811.9,1246.8,811.5,1245.7,812.7Z" transform="translate(-1 -0.87)"/>
    <path d="M1267.3,816.5c0,2.7.2,3.8.4,2.2a20.89,20.89,0,0,0,0-5C1267.5,812.5,1267.3,813.7,1267.3,816.5Z" transform="translate(-1 -0.87)"/>
    <path d="M1260,814c0,.7-.8.9-1.9.5a3.33,3.33,0,0,0-3.1.9c-1.1,1.4-1.4,1.4-2.7,0a3.31,3.31,0,0,0-2.7-1.1c-1.4.5-2.1,5.6-.8,6.9s4.2-.1,4.2-2c0-1.3.4-1.1,1.5.5,1.5,2.2,4.5,2.2,4.5.1,0-.6-.7-.8-1.5-.4q-1.5.45-1.5-1.2a1.79,1.79,0,0,1,2-1.8c1.4,0,2,.7,2,2.3a3.59,3.59,0,0,0,.9,2.7c.4.3.8-1.3.8-3.5s-.4-4.2-.8-4.5S1260,813.4,1260,814Zm-8.3,5.6a2,2,0,0,1-1.9.1c-.8-.3-.5-.6.6-.6S1252.1,819.3,1251.7,819.6Z" transform="translate(-1 -0.87)"/>
    <path d="M1269.8,817.7c-.2,1.8,0,3.3.4,3.3s.8-1.1.8-2.5.5-2.5,1-2.5,1,1.1,1,2.5.5,2.5,1,2.5,1-1.2,1-2.8c.1-2.3.2-2.5,1.1-.9a3.46,3.46,0,0,1,.4,2.7c-.3.6-.1,1,.5,1s1-1.3.8-3.2c-.3-3.1-.6-3.3-4-3.3S1270.1,814.6,1269.8,817.7Z" transform="translate(-1 -0.87)"/>
    <path d="M1280.5,814.8c-1.5,1-1.3,6.7.3,6.6,3.9-.3,3.9-.4,3.3-3.6S1282.2,813.5,1280.5,814.8Z" transform="translate(-1 -0.87)"/>
    <path d="M1286.1,815.3a3.45,3.45,0,0,0,1.2,5.7c1.7.7,1.8.9.5.9-2.4.1-2.3,2.1.1,2.1,2.1,0,3.1-1.9,3.1-6C1291,815,1288,813.4,1286.1,815.3Zm2.9,2.7c0,1.1-.4,2-1,2s-1-.9-1-2,.5-2,1-2S1289,816.9,1289,818Z" transform="translate(-1 -0.87)"/>
    <path d="M1292.4,815.4c-1.1,2.8,0,6.1,2.1,6.1,1.6,0,2-.7,2-3.5,0-2.5-.5-3.6-1.8-3.8A2,2,0,0,0,1292.4,815.4Zm3.3,4.2a2,2,0,0,1-1.9.1c-.8-.3-.5-.6.6-.6S1296.1,819.3,1295.7,819.6Z" transform="translate(-1 -0.87)"/>
    <path d="M1581.1,817.2c.1,2.9.4,4.3.6,3.1a3.2,3.2,0,0,1,2.6-2.5c4.3-.6,3-5.7-1.5-5.8C1581.3,812,1581,812.9,1581.1,817.2Zm3.9-2.2c0,.5-.7,1-1.5,1s-1.5-.5-1.5-1,.7-1,1.5-1S1585,814.4,1585,815Z" transform="translate(-1 -0.87)"/>
    <path d="M1600.6,813.8c-.7,1.1.4,8.2,1.3,8.2s.7-7.7-.1-8.5C1601.5,813.1,1600.9,813.3,1600.6,813.8Z" transform="translate(-1 -0.87)"/>
    <path d="M1589.2,815.2c-1.1,1.1-1.7,5.8-.8,5.8a11.8,11.8,0,0,1,1.9.6c2.2.8,4.1-3,2.7-5.6C1591.8,813.7,1590.9,813.5,1589.2,815.2Zm2.8,2.8c0,1.1-.4,2-.9,2-1.1,0-2.2-2.6-1.4-3.4C1590.9,815.4,1592,816.1,1592,818Z" transform="translate(-1 -0.87)"/>
    <path d="M1595.1,815.4c-1,1.1-.7,1.7,1.1,3.1l2.3,1.7-2.5-.7c-2.3-.7-2.4-.6-.8,1,1.7,1.8,3.8,1.3,3.8-1a3.69,3.69,0,0,0-1.7-2.5c-1.7-1.1-1.7-1.1,0-.6q1.8.6,1.5-.6C1598.2,814,1596.4,813.8,1595.1,815.4Z" transform="translate(-1 -0.87)"/>
    <path d="M682.4,891.3a12.11,12.11,0,0,0-.2,4.4c.3,2.4.8,2.8,4.1,3.1s3.7.1,3.7-2.2c0-2-.5-2.6-2.2-2.6s-1.9.3-.9.9c1.5,1,.7,3.1-1.3,3.1s-2.8-4.2-1.1-5.9c1.2-1.2,1.6-1.2,3.1,0s1.7,1.2,1.2-.1C688.2,890,683.2,889.4,682.4,891.3Z" transform="translate(-1 -0.87)"/>
    <path d="M696.9,894.2c-.1,3.9-.2,4-.8,1.3-.9-4.4-4.5-4.2-4.9.2-.3,3.2-.2,3.3,3.7,3.3H699v-4.5C699,888.8,697,888.6,696.9,894.2ZM694,894a1.1,1.1,0,0,1-1.1,1c-.5,0-.7-.5-.4-1s.8-1,1.1-1S694,893.4,694,894Zm.5,3a2.34,2.34,0,0,1-1.6,1c-.6,0-.7-.5-.4-1a2,2,0,0,1,1.6-1C694.7,896,694.8,896.4,694.5,897Z" transform="translate(-1 -0.87)"/>
    <path d="M700,894.2c0,2.7.5,4.8,1.1,4.8s.7-.6.3-1.3c-.6-1-.4-1,.7,0,1.5,1.5,4.9,1.7,4.9.3,0-.5-.7-.7-1.5-.4s-1.5.1-1.5-.5.9-1.1,2-1.1c2.4,0,2.6-1.3.4-3.1-1.3-1-1.9-1-3.6,0-1.1.7-1.8.9-1.5.4a2.29,2.29,0,0,0-.4-2.3C700.3,890,700,891,700,894.2Z" transform="translate(-1 -0.87)"/>
    <path d="M709.1,895.7c.2,3.1.3,3.3.6,1,.2-1.5,1-2.7,1.8-2.7,1.6,0,2.8,4.2,1.8,6.6-.4,1.2-.3,1.5.6,1,1.9-1.2,4.8-9.6,3.3-9.6-.5,0-1.3,1-1.7,2.2l-.8,2.3-.4-2.3c-.3-1.5-1.1-2.2-2.9-2.2C709.3,892,709,892.4,709.1,895.7Z" transform="translate(-1 -0.87)"/>
    <path d="M1070.9,892.1c-1.6,3.1.3,6.9,3.5,6.9a3.53,3.53,0,0,0,3-1.5c.6-1.8-.5-2-2.1-.4s-3.3.2-3.3-2.6c0-3,1.6-4.1,3.6-2.4,1.6,1.3,3,.6,1.9-1C1076.4,889.2,1072.1,889.9,1070.9,892.1Z" transform="translate(-1 -0.87)"/>
    <path d="M1079.4,893.1c-.5.9-.2,1,.9.6s1.7-.2,1.7.3-.6,1-1.4,1c-1.5,0-2.8,2.4-1.9,3.4a6.45,6.45,0,0,0,3,.6c2.1,0,2.4-.4,2.1-3.2C1083.5,892.4,1080.9,890.8,1079.4,893.1Zm2.6,3.9a1.1,1.1,0,0,1-1.1,1c-.5,0-.7-.5-.4-1s.8-1,1.1-1S1082,896.4,1082,897Z" transform="translate(-1 -0.87)"/>
    <path d="M1085.1,895.8c.1,2.9.2,3.2.7,1.4.8-2.8,2.8-2.9,2.4-.2-.2,1.1.2,2,.7,2s1.1-1.1,1.1-2.5.5-2.5,1-2.5,1,1.1,1,2.5c0,2.9,1.6,3.4,2.3.7.4-1.6.5-1.6.6,0,.1,2,3.6,2.5,4.7.6.5-.8.2-.9-.9-.5-.9.3-1.9.2-2.2-.3s.3-1,1.4-1c2.5,0,2.8-2.8.5-3.7a2.63,2.63,0,0,0-3,1.2c-1.2,1.6-1.4,1.6-1.9.3-.4-1-2-1.6-4.6-1.6C1085,892.1,1085,892.2,1085.1,895.8Zm13.6-1.2a2,2,0,0,1-1.9.1c-.8-.3-.5-.6.6-.6S1099.1,894.3,1098.7,894.6Z" transform="translate(-1 -0.87)"/>
    <path d="M1101,895.5c0,1.9.5,3.5,1,3.5s1-.9,1-1.9a12.81,12.81,0,0,1,.6-3.5c.4-1.1.1-1.6-1-1.6S1101,893,1101,895.5Z" transform="translate(-1 -0.87)"/>
    <path d="M1105.4,893.1c-.5.9-.2,1,.9.6s1.7-.2,1.7.3-.6,1-1.4,1c-1.5,0-2.8,2.4-1.9,3.4a7.67,7.67,0,0,0,3.3.6c2.6,0,2.7-.2,2.1-3.2C1109.4,892.4,1106.8,890.9,1105.4,893.1Zm2.6,3.9a1.1,1.1,0,0,1-1.1,1c-.5,0-.7-.5-.4-1s.8-1,1.1-1S1108,896.4,1108,897Z" transform="translate(-1 -0.87)"/>
    <path d="M298,885.1a6.94,6.94,0,0,0-.6,4.5c.5,1.8,1.3,2.4,3.5,2.4,1.6,0,3.1-.6,3.5-1.5.7-1.8-.5-2-2.2-.3s-3.5-.3-3-2.8c.3-1.4,1.2-1.8,3-1.7,2,.1,2.5-.2,2.1-1.3C303.5,882.3,299.2,882.7,298,885.1Z" transform="translate(-1 -0.87)"/>
    <path d="M322,887.5c0,4.5,0,4.5,3.5,4.5H329l-.2-4.8-.1-4.7-.4,4.2c-.3,3.5-.8,4.3-2.4,4.3s-1.9-.7-1.9-4c0-2.2-.4-4-1-4S322,885,322,887.5Z" transform="translate(-1 -0.87)"/>
    <path d="M331.2,887.5c0,3.3.2,4.3.7,3.1.7-1.8.8-1.8,1.4-.3.3.9,1.1,1.7,1.7,1.7s.7-.6,0-2.1c-.9-1.5-.8-2.4.1-3.5.7-.9.8-1.4.1-1.4a2.66,2.66,0,0,0-1.8,1.2c-.6.9-1,.5-1.5-1.2S331.2,883.9,331.2,887.5Z" transform="translate(-1 -0.87)"/>
    <path d="M306.5,886.2c-1.5,4.6-1.1,5.3,3.3,5.6,3.9.3,4.2.1,4.2-2.2,0-1.4.5-2.6,1-2.6s1,1.1,1,2.5.5,2.5,1.1,2.5.9-1.4.7-3.3c-.2-2.7-.7-3.2-2.8-3.2s-2.6.6-3.1,3l-.6,3-.4-3C310.5,885.4,307.4,883.7,306.5,886.2ZM309,890a1.1,1.1,0,0,1-1.1,1c-.5,0-.7-.5-.4-1s.8-1,1.1-1S309,889.4,309,890Z" transform="translate(-1 -0.87)"/>
    <path d="M337,887c-1.6,3-.6,5,2.5,5,2.4,0,2.6-.3,2.3-3.2C341.4,884.9,338.7,883.9,337,887Zm3.5,3a2.14,2.14,0,0,1-1.6,1,1,1,0,0,1-.9-1c0-.6.7-1,1.6-1S340.8,889.4,340.5,890Z" transform="translate(-1 -0.87)"/>
    <path d="M346.2,886.6c-1.5,2.7-.3,5.4,2.5,5.4,2.1,0,2.4-.4,2.1-3.2C350.5,885.1,347.8,883.8,346.2,886.6Zm3.8,1.8a2.93,2.93,0,0,1-.9,2.1c-1.2.7-2.4-1.2-1.6-2.5C348.4,886.5,350,886.8,350,888.4Z" transform="translate(-1 -0.87)"/>
    <path d="M353.3,885.7c-1.5.6-1.8,6.3-.3,6.3.6,0,1-1.1,1-2.5s.5-2.5,1-2.5a1,1,0,0,0,1-1C356,884.9,355.3,884.8,353.3,885.7Z" transform="translate(-1 -0.87)"/>
    <path d="M299.4,898.3a12.11,12.11,0,0,0-.2,4.4,3.55,3.55,0,0,0,6.5,1.7c1.2-1.6,1.3-1.6,1.3-.1,0,2.4,4.6,2.3,5.3-.2.5-2.2-.9-5.1-2.6-5.1-.7,0-2.5,1.4-4.1,3.2-2.6,3-2.9,3.1-4.1,1.5-1.5-2-.9-5.7.9-5.7a4.82,4.82,0,0,1,2.5,1.2c1.1,1.1,1.3,1,.9-.2C305.2,897,300.2,896.4,299.4,898.3Zm11.2,5.3c-.5,1.3-1,1.4-1.8.6a2.73,2.73,0,0,1-.4-2.8c.5-1.3,1-1.4,1.8-.6A2.73,2.73,0,0,1,310.6,903.6Z" transform="translate(-1 -0.87)"/>
    <path d="M349.7,897.7c-1.4,1.3-.6,2.5.8,1.3,1.7-1.4,1.9-.7.6,3.8-.6,2-.6,3.2,0,3.2s.9-.8.9-1.8a4.69,4.69,0,0,1,1.1-2.9,2.74,2.74,0,0,0,.6-2.7A2.5,2.5,0,0,0,349.7,897.7Z" transform="translate(-1 -0.87)"/>
    <path d="M344.9,900.7c-.1,2.3-.2,2.4-.6.5-.3-1.5-1.1-2.2-2.9-2.2-2.1,0-2.4.5-2.4,3.5,0,1.9.5,3.5,1,3.5s1-1.1,1-2.5.5-2.5,1-2.5,1,1.1,1,2.4c0,1.8.5,2.4,2.3,2.4s2.2-.6,2.1-3.6C347.3,897.9,345.1,896.6,344.9,900.7Z" transform="translate(-1 -0.87)"/>
    <path d="M314.1,902.7c.2,3,.3,3.2.6,1,.5-3.4,2.3-3.6,2.3-.2,0,1.4.5,2.5,1,2.5s1-1.1,1-2.5.4-2.5.9-2.5.8.9.6,2a2.93,2.93,0,0,0,.6,2.6c.7.4.9-.7.7-2.7-.3-3.1-.6-3.4-4-3.7l-3.8-.3Z" transform="translate(-1 -0.87)"/>
    <path d="M323,902.6c0,4.1,1.7,4.6,2.3.6l.4-2.7.2,2.7c.1,3.5,2.1,3.7,2.1.3,0-1.4.5-2.5,1-2.5s1,1.1,1,2.5.4,2.5.8,2.5.6-1.5.4-3.4c-.4-3.2-.6-3.4-4.3-3.4S323,899.2,323,902.6Z" transform="translate(-1 -0.87)"/>
    <path d="M332.6,900.8a5.54,5.54,0,0,0,0,3.6c.7,1.8,3.9,2.2,5,.5.4-.8,0-.9-1.5-.4-1.2.4-2.1.2-2.1-.4s.9-1.1,2.1-1.1c1.4,0,1.9-.5,1.7-1.8C337.3,898.7,333.3,898.4,332.6,900.8Zm3.9.2c.3.5-.1,1-1,1s-1.3-.5-1-1,.8-1,1-1S336.2,900.4,336.5,901Z" transform="translate(-1 -0.87)"/>
    <path d="M1446.7,887.2c-.9,2.3-1.4,4.4-1.1,4.7s.9,0,1.1-.7c.5-1.4,4.3-1.6,4.3-.2a1,1,0,0,0,.9,1c.6,0,.3-2-.6-4.5s-1.8-4.5-2.2-4.5S1447.6,884.9,1446.7,887.2Z" transform="translate(-1 -0.87)"/>
    <path d="M1457,883.9c0,.6-.7,1.1-1.5,1.1-1.6,0-3.1,4.2-2.1,5.9.4.5,3.1,1,6.1,1h5.5V883l-2.5,1.6c-1.4.9-2.5,2.1-2.5,2.6s-.4.7-1,.3a1.61,1.61,0,0,1-.4-1.9,1.78,1.78,0,0,0-.5-2.1C1457.5,883.2,1457,883.4,1457,883.9Zm0,5.1c0,1.1-.4,2-1,2s-1-.9-1-2,.5-2,1-2S1457,887.9,1457,889Zm6,0c0,1.1-.4,2-1,2s-1-.9-1-2,.5-2,1-2S1463,887.9,1463,889Z" transform="translate(-1 -0.87)"/>
    <path d="M1483,884.9c-1.5,3-1.2,4.8,1.2,6.5,3.9,2.8,8.2-1.9,5.8-6.4A4.16,4.16,0,0,0,1483,884.9Zm5.8,2.8c-.3,3.1-3.4,4.4-4.4,1.9s.3-4.6,2.6-4.6C1488.7,885,1489.1,885.5,1488.8,887.7Z" transform="translate(-1 -0.87)"/>
    <path d="M1502.7,885.4c-1.8,1.4-2.4,6.6-.8,6.6.5,0,1.2-1.2,1.4-2.8l.4-2.7.2,2.7c.2,4,1.6,3.4,1.6-.6C1505.5,884.4,1505,883.8,1502.7,885.4Z" transform="translate(-1 -0.87)"/>
    <path d="M1469.4,887.4c-.7,3.1.1,4.6,2.7,4.6,3.9,0,3.5-6-.4-6.8C1470.7,885,1469.8,885.8,1469.4,887.4Zm3.6,1.6c0,1.1-.4,2-.9,2-1.1,0-2.2-2.6-1.4-3.4C1471.9,886.4,1473,887.1,1473,889Z" transform="translate(-1 -0.87)"/>
    <path d="M1475.8,888.5c-.2,1.9,0,3.5.4,3.5s.8-.9.8-1.9a3.5,3.5,0,0,1,1-2.6c1.5-.9,1.2-2.5-.4-2.5C1476.8,885,1476.1,886.4,1475.8,888.5Z" transform="translate(-1 -0.87)"/>
    <path d="M1492.1,888.7c.2,3,.3,3.3.6,1,.5-3.4,2.3-3.6,2.3-.2,0,1.4.5,2.5,1,2.5s1-1.2,1-2.6.4-2.3,1.1-1.8a2.28,2.28,0,0,1,.6,2.5c-.3,1.1-.1,1.9.5,1.9s.8-1.5.6-3.2c-.3-3-.6-3.3-4-3.6C1492,885,1492,885,1492.1,888.7Z" transform="translate(-1 -0.87)"/>
    <path d="M1459,899c0,1.3,1,2.4,2.7,3.1,2,.7,2.3,1.3,1.5,2.1s-1.5.9-2.4,0c-1.7-1.7-2.8-1.5-2.1.4.9,2.3,5.7,1.4,6.1-1.2.2-1.6-.4-2.3-2.4-2.8s-2.4-1-1.6-1.8,1.6-.7,2.8.3c1.5,1.2,1.7,1.2,1.2-.1-.2-.8-1.7-1.6-3.1-1.8C1459.5,896.9,1459,897.3,1459,899Z" transform="translate(-1 -0.87)"/>
    <path d="M1466.8,898.2a12.69,12.69,0,0,0-.1,4.5c.4,2.4,1.1,3.3,2.4,3.3,1.6,0,1.9-.7,1.7-3.8-.1-3.6-.1-3.6-.5-.5-.6,4.4-2.4,4.2-2.1-.2C1468.4,897.9,1467.6,896,1466.8,898.2Z" transform="translate(-1 -0.87)"/>
    <path d="M1478,900.4c0,2.5-.5,3.5-1.9,3.9-2.1.5-3.1-.9-2.4-3.1.4-1,.8-1,2.1,0s1.4,1.1,1-.2a2.51,2.51,0,0,0-2.4-1.5c-1.4,0-1.9.7-1.9,3,0,2.7.3,3,3,3,1.7,0,3.4-.5,3.8-1,.6-.6,1-.6,1.4.2a1.82,1.82,0,0,0,1.4,1.3c.6,0,.5-.9-.1-2.1-.9-1.5-.8-2.4.1-3.5,1.4-1.7-.2-1.9-2-.2-1.1,1.1-1.3.9-.8-1,.3-1.2.1-2.2-.4-2.2S1478,898.5,1478,900.4Z" transform="translate(-1 -0.87)"/>
    <path d="M1484.1,900.4c-2.7,3.3,1.4,7.7,4.3,4.5.8-.9.7-1.1-.6-.6-1,.3-2,.2-2.3-.3s.3-1,1.5-1c1.5,0,2-.5,1.8-1.7C1488.4,899,1485.7,898.5,1484.1,900.4Zm2.9.6a1.1,1.1,0,0,1-1.1,1c-.5,0-.7-.5-.4-1s.8-1,1.1-1S1487,900.4,1487,901Z" transform="translate(-1 -0.87)"/>
    <path d="M1490.1,902.7c.1,2.2.3,2.9.6,1.8a9.31,9.31,0,0,1,1.4-3c1.4-1.4,1.1-2.5-.6-2.5C1490.4,899,1490,900,1490.1,902.7Z" transform="translate(-1 -0.87)"/>
    <path d="M12,894.4c0,2.5.5,4.6,1,4.6s1-.9,1-1.9c0-1.3.8-2.1,2.3-2.3a2.24,2.24,0,0,0,2.2-2.3c0-1.5-.8-2.1-3.2-2.3C12,889.9,12,889.9,12,894.4Zm5-1.9a1.54,1.54,0,0,1-1.5,1.5c-1.6,0-2-1.2-.8-2.3S17,890.9,17,892.5Z" transform="translate(-1 -0.87)"/>
    <path d="M38.8,891.2c-.7,1.6.2,7.8,1.1,7.8.7,0,.7-7.8-.1-8.5C39.5,890.2,39,890.5,38.8,891.2Z" transform="translate(-1 -0.87)"/>
    <path d="M51.5,894.5c0,4.3.2,4.5,2.8,4.5a3.39,3.39,0,0,0,3.7-2.6c1.4-3.5-.3-6.4-3.8-6.4C51.7,890,51.5,890.3,51.5,894.5Zm5.5-.6c0,1.8-1.8,4.1-3.2,4.1-.9,0-1.1-5.4-.2-6.3C54.7,890.7,57,892.2,57,893.9Z" transform="translate(-1 -0.87)"/>
    <path d="M60,894.5c0,4.5.1,4.6,2.8,4.3,2.4-.3,2.7-.7,2.7-4.3s-.3-4-2.7-4.3C60.1,889.9,60,890,60,894.5Zm3.8-2.4a1.34,1.34,0,0,1-2.6,0c-.2-.6.4-1.1,1.3-1.1S64,891.5,63.8,892.1Zm1,4.1c-.7,1.9-3.8,2.2-3.8.4,0-1,.9-1.6,2.1-1.6S65,895.5,64.8,896.2Z" transform="translate(-1 -0.87)"/>
    <path d="M32,894.9c0,2.6.5,4.1,1.3,4.1,1.5,0,1.4-7.3-.2-7.8C32.4,891,32,892.3,32,894.9Z" transform="translate(-1 -0.87)"/>
    <path d="M20.2,893.6c-1.5,2.6-.3,5.4,2.3,5.4a2.67,2.67,0,0,0,2.8-1.9c.6-2.3-.9-5.1-2.8-5.1A3,3,0,0,0,20.2,893.6Zm3.8,2.5c0,2-1.5,2.6-2.5.9-.9-1.5.3-4.3,1.5-3.5A3.5,3.5,0,0,1,24,896.1Z" transform="translate(-1 -0.87)"/>
    <path d="M26.7,893.4c-.3.8.4,2.2,1.6,3l2.2,1.7-2.4-.7c-1.6-.4-2.1-.3-1.7.5,1.2,1.9,4.6,1.3,4.6-.9,0-1.1-.7-2-1.5-2s-1.5-.4-1.5-1,.7-.6,1.7-.3,1.4.3.9-.5A2.15,2.15,0,0,0,26.7,893.4Z" transform="translate(-1 -0.87)"/>
    <path d="M42.1,893.4c-1.9,2.3-.4,5.8,2.2,5.4,1.7-.2,2.2-1,2.2-3.3C46.5,892.1,44.1,891,42.1,893.4Zm3.6,3c-.4.9-1.1,1.6-1.7,1.6-1.1,0-1.4-3.3-.3-4.4S46.3,894.7,45.7,896.4Z" transform="translate(-1 -0.87)"/>
    <path d="M165.5,893a13.76,13.76,0,0,1,1.5,4.5c0,.8.5,1.5,1,1.5s1-.9,1-2.1a10.93,10.93,0,0,1,1.1-4.1c1.4-2.6.3-3.7-1.4-1.3-1.3,1.6-1.4,1.6-2,.1-.4-.9-1.1-1.6-1.7-1.6S164.6,891.2,165.5,893Z" transform="translate(-1 -0.87)"/>
    <path d="M171.2,893.6c-1.5,2.7-.3,5.4,2.4,5.4,1.3,0,2.4-.5,2.4-1.1s-.7-.9-1.5-.6a1.58,1.58,0,0,1-2-.3c-.4-.6.3-1,1.5-1,1.5,0,2-.5,1.8-1.7A2.44,2.44,0,0,0,171.2,893.6Zm3.3.4c.3.5-.1,1-1,1s-1.3-.5-1-1,.8-1,1-1S174.2,893.4,174.5,894Z" transform="translate(-1 -0.87)"/>
    <path d="M177.4,893.1c-.4.7.4,2,1.7,3.1l2.4,1.9-2.4-.6c-1.6-.5-2.1-.4-1.7.4,1.2,1.9,4.6,1.3,4.6-.9,0-1.1-.7-2-1.5-2s-1.5-.4-1.5-1,.7-.7,1.5-.4,1.5.1,1.5-.5C182,891.7,178.3,891.7,177.4,893.1Z" transform="translate(-1 -0.87)"/>
    <path d="M496,890.6a27.77,27.77,0,0,0,1.2,4.5c1.3,4.7,3.4,5.1,4.3.9a10,10,0,0,1,2.2-4.5c1.3-1.3,1.2-1.5-.5-1.5-1.3,0-2.2,1-2.9,3.2l-1,3.3-.7-3.3c-.4-1.7-1.2-3.2-1.7-3.2S496,890.3,496,890.6Z" transform="translate(-1 -0.87)"/>
    <path d="M524,894.5c0,2.5.5,4.5,1,4.5s1-.9,1-2a1.77,1.77,0,0,1,1.9-2,2.49,2.49,0,0,0,2.3-1.3c.9-2.3-.4-3.7-3.3-3.7S524,890.2,524,894.5Zm4.8-1.7c.2.7-.3,1.2-1.2,1.2a1.58,1.58,0,0,1-1.6-1.6C526,890.7,528.2,891,528.8,892.8Z" transform="translate(-1 -0.87)"/>
    <path d="M531.7,894.1c.2,5.7,1.3,6.2,1.3.6,0-2.6-.3-4.7-.7-4.7S531.6,891.8,531.7,894.1Z" transform="translate(-1 -0.87)"/>
    <path d="M539.9,891.4c-.3.3-.3,2.1-.1,4.1.5,4.5,3,4.8,2.6.2l-.3-3.2.7,3c.6,2.6,1.2,3,4.5,3.3s3.7.1,3.7-2.2c0-3.5,1.8-4.2,2.2-.9.3,3.1,3.2,4.3,5.2,2.3.8-.9.6-1.1-1.1-.6-1.2.4-2.4.2-2.8-.4s.4-1,1.9-1,2.6-.3,2.6-.8c-.1-2-1.9-3-5.7-3-4.1-.1-4.3,0-4.4,3.1l-.2,3.2L548,895c-.6-3.1-.8-3.2-.9-.8-.2,3.8-2.1,4.6-2.1.9,0-1.7-.4-3.1-.9-3.1a7.36,7.36,0,0,1-2.3-.5A2.54,2.54,0,0,0,539.9,891.4Z" transform="translate(-1 -0.87)"/>
    <path d="M503.7,892.7c-1.1,1-.8,6.3.3,6.3.6,0,1-1.6,1-3.5C505,891.9,504.8,891.5,503.7,892.7Z" transform="translate(-1 -0.87)"/>
    <path d="M506.7,892.7c-.4.3-.7,1.9-.7,3.5,0,2.3.4,2.8,2.5,2.8,1.4,0,2.5-.4,2.5-1s-.6-.7-1.4-.4a1.78,1.78,0,0,1-2.1-.5c-.4-.7.4-1.1,2-1.1,2.3,0,2.4-.2,1.5-2C509.9,892,507.9,891.4,506.7,892.7Zm3,1.9a2,2,0,0,1-1.9.1c-.8-.3-.5-.6.6-.6S510.1,894.3,509.7,894.6Z" transform="translate(-1 -0.87)"/>
    <path d="M512.5,895.2c.9,4.3,1.2,4.5,3,2.2,1.3-1.7,1.4-1.7,1.5-.2,0,1,.4,1.8.9,1.8,1.1,0,2.6-5.9,1.7-6.7-.3-.4-.6.2-.6,1.3-.1,1.8-.1,1.8-1.4.1-1.7-2.3-2.4-2.2-2.9.5l-.4,2.3-.2-2.3c0-1.2-.6-2.2-1.2-2.2S512.1,893.2,512.5,895.2Z" transform="translate(-1 -0.87)"/>
    <path d="M534.4,893.4c-1,2.5,0,5.1,2,5.1a2.51,2.51,0,0,0,2.4-1.5c.5-1.3.3-1.3-1.1-.1s-1.8,1.1-2.3-.2c-.9-2.5.5-4,2.4-2.5,1.3,1.1,1.4,1.1,1-.2C538.2,891.9,535.1,891.5,534.4,893.4Z" transform="translate(-1 -0.87)"/>
    <path d="M1233.3,890.7c1.2.3,1.7,1.5,1.7,4.4,0,2.1.5,3.9,1,3.9s1-1.8,1-3.9c0-2.9.5-4.1,1.8-4.4.9-.3-.3-.5-2.8-.5S1232.3,890.4,1233.3,890.7Z" transform="translate(-1 -0.87)"/>
    <path d="M1244.9,894.2c-.2,3.1-.3,3.5-.6,1.5-.5-3.2-2.9-4.6-4.6-2.7-1,1-.8,1.2.6.7.9-.4,1.7-.2,1.7.3s-.6,1-1.4,1c-1.5,0-2.8,2.4-1.9,3.4a12.3,12.3,0,0,0,4.5.6c2.9,0,3.8-.4,3.8-1.8s.2-1.5,1-.1c1.1,1.8,7.6,2.4,8.6.8.4-.7-.1-.9-1.4-.5a2.44,2.44,0,0,1-2.7-.4c-.4-.6.4-1,1.9-1,2.9,0,3.3-1.1,1.1-3s-4.5-.5-4.5,2.5c0,1.6-.4,2.4-1.1,1.9-.6-.3-.8-1.7-.4-3.2.5-2.2.4-2.4-.9-1.3s-1.6,1-1.6-.8C1247,888.1,1245,890,1244.9,894.2Zm-2.4,2.8a2.14,2.14,0,0,1-1.6,1,1,1,0,0,1-.9-1c0-.6.7-1,1.6-1S1242.8,896.4,1242.5,897Z" transform="translate(-1 -0.87)"/>
    <path d="M1261.1,894.7c.1,2.6.4,3.8.6,2.5.3-1.6,1.1-2.2,2.9-2.2,2.1,0,2.5-.4,2.2-2.3-.2-1.6-1.1-2.3-3-2.5C1261.1,889.9,1261,890,1261.1,894.7Zm4.4-2.7c.3.6-.1,1.3-1,1.6-1.9.8-3,0-2-1.5A1.62,1.62,0,0,1,1265.5,892Z" transform="translate(-1 -0.87)"/>
    <path d="M1276.6,891.9a2,2,0,0,1-2.3.4,2.55,2.55,0,0,0-2.9,1.2c-1.3,1.7-1.4,1.7-1.4.2,0-.9-.4-1.7-1-1.7s-1,1.6-1,3.5c0,3.6,1.5,4.8,2.3,1.7.4-1.6.5-1.6.6,0,.1,2,3.6,2.5,4.6.7.4-.6,0-.9-1.1-.7a1.79,1.79,0,0,1-2.2-1.4c-.3-1.4.3-1.7,2.2-1.6s2.6.8,2.6,2.5c0,1.3.3,2.3.8,2.3.8,0,.8-6.7-.1-7.6C1277.4,891.1,1276.9,891.3,1276.6,891.9Z" transform="translate(-1 -0.87)"/>
    <path d="M1280.1,895.2c-.1,3.4.2,3.8,2.4,3.8s2.5-.4,2.5-3.6c0-2.1-.4-3.3-1-2.9s-1,1.8-1,3.3c0,3.1-1.6,1.9-2.3-1.8C1280.4,892.2,1280.2,892.5,1280.1,895.2Z" transform="translate(-1 -0.87)"/>
    <path d="M1286.1,895.7c.1,2.2.3,2.9.6,1.8a9.31,9.31,0,0,1,1.4-3c1.4-1.4,1.1-2.5-.6-2.5C1286.4,892,1286,893,1286.1,895.7Z" transform="translate(-1 -0.87)"/>
    <path d="M1290.7,892.7c-.4.3-.7,1.9-.7,3.5,0,2.3.4,2.8,2.5,2.8,1.4,0,2.5-.4,2.5-1s-.6-.7-1.4-.4a1.78,1.78,0,0,1-2.1-.5c-.4-.7.4-1.1,1.9-1.1,2.8,0,3.3-.9,1.4-2.8C1293.5,891.9,1291.7,891.6,1290.7,892.7Zm3,1.9a2,2,0,0,1-1.9.1c-.8-.3-.5-.6.6-.6S1294.1,894.3,1293.7,894.6Z" transform="translate(-1 -0.87)"/>
    <path d="M1247.3,975c.2,3.6.6,4.6,2.1,4.9a3.72,3.72,0,0,0,3.3-1.5c1.5-2.1,1.8-7.4.3-7.4-.5,0-1,1.6-1,3.6,0,2.8-.3,3.5-1.7,3.2-1.1-.2-2-1.6-2.5-3.8C1247.2,970.8,1247.2,970.9,1247.3,975Z" transform="translate(-1 -0.87)"/>
    <path d="M1261,975.7c0,2.5.2,4.4.4,4.2.8-1,1.3-8.9.5-8.9C1261.4,971,1261,973.1,1261,975.7Z" transform="translate(-1 -0.87)"/>
    <path d="M1280,972c0,.5-.7,1-1.5,1a3.53,3.53,0,0,0-2.4,1.7c-1,1.7-1,1.7-1.1,0a1.77,1.77,0,0,0-2-1.7c-1.1,0-2,.5-2,1.1s.5.7,1,.4c1.7-1,1.1.7-.7,2-2.7,2-.6,3.4,5.2,3.4h5.5v-4.5c0-2.4-.4-4.4-1-4.4A1,1,0,0,0,1280,972Zm0,4.5c0,.8-.4,1.5-1,1.5s-1-.7-1-1.5.5-1.5,1-1.5S1280,975.7,1280,976.5Z" transform="translate(-1 -0.87)"/>
    <path d="M1255,977.7c0,2.6.4,4.3.8,3.7a6.1,6.1,0,0,1,2.5-1.7c2.7-1,1.9-6.1-1-6.5C1255.2,972.9,1255,973.3,1255,977.7Zm4-1.1c0,1.4-1.2,1.9-2.3.8-.9-.9.4-3.5,1.4-2.8A2.53,2.53,0,0,1,1259,976.6Z" transform="translate(-1 -0.87)"/>
    <path d="M1263.6,974.8c-1,3,.4,5.3,2.8,5,3.1-.4,3-6.2-.1-6.6A2.16,2.16,0,0,0,1263.6,974.8Zm4,2.8c-.5,1.3-1,1.4-1.8.6a2.73,2.73,0,0,1-.4-2.8c.5-1.3,1-1.4,1.8-.6A2.73,2.73,0,0,1,1267.6,977.6Z" transform="translate(-1 -0.87)"/>
    <path d="M1247,988.5c0,2.5.5,4.5,1,4.5s1-.9,1-2a1.77,1.77,0,0,1,1.9-2c2.3,0,3.4-2.3,1.8-3.9a5.51,5.51,0,0,0-3.4-1.1C1247.2,984,1247,984.5,1247,988.5Zm5-1.5c0,.5-.7,1-1.5,1s-1.5-.5-1.5-1,.7-1,1.5-1S1252,986.4,1252,987Z" transform="translate(-1 -0.87)"/>
    <path d="M1254.6,986.2c-.9,3.5-.7,6.8.4,6.8.6,0,1-2,1-4.5C1256,983.5,1255.6,982.8,1254.6,986.2Z" transform="translate(-1 -0.87)"/>
    <path d="M1262.6,985.7a5,5,0,0,1-2.9.8c-1.7,0-2.3.7-2.5,3.2-.3,2.7,0,3.3,1.7,3.3a3.19,3.19,0,0,0,2.6-1.1c.4-.6,0-.9-1.1-.7s-1.9-.3-1.9-1.2,1-1.5,2.3-1.6c1.7-.1,2.2.4,2.2,2.2,0,1.3.3,2.4.8,2.4.8,0,1-6.6.1-7.4A1,1,0,0,0,1262.6,985.7Z" transform="translate(-1 -0.87)"/>
    <path d="M1266.1,989.2c-.1,3.4.2,3.8,2.4,3.8s2.5-.4,2.4-3.8c-.1-3.6-.2-3.6-.8-.7-.3,1.6-1.1,3-1.6,3s-1.3-1.4-1.6-3C1266.3,985.6,1266.2,985.6,1266.1,989.2Z" transform="translate(-1 -0.87)"/>
    <path d="M1272.7,986.7c-.8,1.7-.6,6.3.3,6.3.6,0,1-1.1,1-2.5s.5-2.5,1-2.5a1,1,0,0,0,1-1C1276,985.8,1273.3,985.6,1272.7,986.7Z" transform="translate(-1 -0.87)"/>
    <path d="M1277,987.5c-2.6,3.2,1.5,7.5,4.4,4.5.8-.9.6-1.1-1.1-.5-1.4.4-2.3.2-2.3-.4s.9-1.1,2-1.1c2.3,0,2.6-1,.8-2.8C1279.2,985.6,1278.5,985.7,1277,987.5Z" transform="translate(-1 -0.87)"/>
    <path d="M320.1,991.7c.1,4.2.2,4.4.8,1.8l.8-3,1.3,2.7c1.9,4,3.5,3.5,3.4-1-.2-5.3-.5-6.1-1.3-2.7l-.8,3-1.3-2.8C321,985.7,320,986.4,320.1,991.7Z" transform="translate(-1 -0.87)"/>
    <path d="M328.1,990.9c-1.5,2.8-.3,5.1,2.6,5.1,2.1,0,2.4-.4,2.1-3.2C332.4,988.9,329.7,987.8,328.1,990.9Zm3.7,1.8c-.5,2.5-2.8,2.8-2.8.4,0-1.2.6-2.1,1.6-2.1S332,991.7,331.8,992.7Z" transform="translate(-1 -0.87)"/>
    <path d="M296.1,1072.7c.1,2.6.4,3.8.6,2.5.5-2.7,3.3-2.9,4-.2.9,3.4,1.9,2.2,1.8-2.3-.1-4-.3-4.2-3.3-4.5l-3.2-.3Zm4.2-2.2c.1.5-.6,1.1-1.5,1.3-1.1.2-1.8-.3-1.8-1.3C297,1068.8,300,1068.7,300.3,1070.5Z" transform="translate(-1 -0.87)"/>
    <path d="M309.8,1069.1c-.6,1.7.3,7.9,1.2,7.9s.9-7.9-.1-8.5C310.5,1068.2,310,1068.5,309.8,1069.1Z" transform="translate(-1 -0.87)"/>
    <path d="M333,1072.5c0,4.5,0,4.5,3.6,4.5,2.1,0,3.3-.4,2.9-1s-1.5-1-2.6-1-1.9-.5-1.9-1,.9-1,2-1,2-.5,2-1-.9-1-2-1c-3,0-2.4-1.8.8-2.3,2.2-.3,2-.4-1-.6l-3.8-.1Z" transform="translate(-1 -0.87)"/>
    <path d="M304.1,1071.4a4.07,4.07,0,0,0-.6,3.6,2.93,2.93,0,0,0,5.1.8c.5-.8.2-.9-.9-.5-.9.3-1.9.2-2.2-.3s.3-1,1.5-1c1.5,0,2-.5,1.8-1.7C308.4,1070,305.7,1069.5,304.1,1071.4Zm2.9.6a1.1,1.1,0,0,1-1.1,1c-.5,0-.7-.5-.4-1s.8-1,1.1-1S307,1071.4,307,1072Z" transform="translate(-1 -0.87)"/>
    <path d="M313.2,1073.2c.2,2.8.8,3.4,3.1,3.6,2.5.3,2.7.1,2.7-3.2,0-2-.4-3.6-1-3.6s-1,1.1-1,2.4-.4,2.8-1,3.1-1-.7-1-2.4-.5-3.1-1.1-3.1S313,1071.4,313.2,1073.2Z" transform="translate(-1 -0.87)"/>
    <path d="M320.1,1073.7c.1,2.8.3,3.1.6,1.3.7-4,2.3-4.8,2.3-1.2,0,1.8.5,3.2,1,3.2s1-1.1,1-2.5.5-2.5,1-2.5,1,1.2,1,2.7c0,2,.3,2.4,1.1,1.6a4.1,4.1,0,0,0,.5-3.7c-.6-2.3-1.2-2.6-4.6-2.6C320,1070,320,1070,320.1,1073.7Z" transform="translate(-1 -0.87)"/>
    <path d="M341.1,1073.8c.1,2.7.3,3,.6,1.2.7-4,2.3-4.8,2.3-1.2,0,1.8.5,3.2,1,3.2s1-1.1,1-2.4c0-3.5,1.8-4.2,2.2-.9.4,3.6,4.2,4.5,5.1,1.3,1-3.9-.1-4.8-6.4-4.9l-5.9-.1Zm10.5.8c-.5,1.3-1,1.4-1.8.6a2.73,2.73,0,0,1-.4-2.8c.5-1.3,1-1.4,1.8-.6A2.73,2.73,0,0,1,351.6,1074.6Z" transform="translate(-1 -0.87)"/>
    <path d="M355.1,1073.7c.2,3.1.3,3.3.6,1,.2-1.5.9-2.7,1.4-2.7a1,1,0,0,0,.9-1c0-.6-.7-1-1.5-1C355.4,1070,355,1071,355.1,1073.7Z" transform="translate(-1 -0.87)"/>
    <path d="M304.1,1085.7c.1,3.7.3,4.2.8,2.3.7-2.5.7-2.5,1.3-.3.8,3.1,2.4,2.9,3.4-.5l.7-2.7.7,3c.7,2.6.8,2.4.9-1.8.1-5.5-1.2-6.1-2.9-1.5l-1.3,3.3-1-3.3C305.3,1079.5,304,1080.3,304.1,1085.7Z" transform="translate(-1 -0.87)"/>
    <path d="M314.2,1084.2a3.47,3.47,0,0,0,.7,5.7c1.4.8,2.2.7,3.2-.6,1.2-1.4,1.1-1.5-.9-.9-1.3.5-2.2.3-2.2-.3s.9-1.1,2-1.1,2-.4,2-.8c0-.9-2.1-3.2-3-3.2A4.13,4.13,0,0,0,314.2,1084.2Z" transform="translate(-1 -0.87)"/>
    <path d="M320.3,1084.5a3.25,3.25,0,0,0,1.3,3.1c1.7,1.4,1.7,1.5.2,1-1-.3-1.8-.1-1.8.4s1.2,1,2.8.9a13.47,13.47,0,0,1,3.7.1c3.6.9,4.9-2.1,1.8-3.9-1.7-1-1.7-1,0-1.1,1,0,1.5-.5,1.2-1-.9-1.5-3.5-1.2-4.2.5a2.91,2.91,0,0,0,1.3,3c2.9,2.2.3,1.8-3.1-.5-2.2-1.5-2.5-2-1.2-2,1,0,1.5-.5,1.2-1C322.6,1082.5,321,1082.8,320.3,1084.5Z" transform="translate(-1 -0.87)"/>
    <path d="M331.7,1083.6c-.4.4-.7,2-.7,3.6,0,2.4.4,2.8,2.9,2.8,2.7,0,2.8-.2,2.2-3.2S333.2,1082.1,331.7,1083.6Zm2.3,4.4a1.1,1.1,0,0,1-1.1,1c-.5,0-.7-.5-.4-1s.8-1,1.1-1S334,1087.4,334,1088Z" transform="translate(-1 -0.87)"/>
    <path d="M338,1084.9c-1.5,2.9-1.2,4.1,1.3,5.1,1.7.7,1.8.9.5.9-1.8.1-2.6,2.1-.9,2.1,2.9,0,4.1-1.4,4.1-5,0-2.5-.5-4-1.6-4.4C339.2,1082.8,339.2,1082.8,338,1084.9Zm3,2.1c0,1.1-.4,2-1,2s-1-.9-1-2,.5-2,1-2S341,1085.9,341,1087Z" transform="translate(-1 -0.87)"/>
    <path d="M344.7,1083.6c-.4.4-.7,2-.7,3.6,0,2.3.4,2.8,2.6,2.8s2.5-.3,2.2-3.2C348.5,1083.7,346.3,1082,344.7,1083.6Zm3.3,3.8c0,.3-.4.8-1,1.1s-1,.1-1-.4a1.1,1.1,0,0,1,1-1.1C347.6,1087,348,1087.2,348,1087.4Z" transform="translate(-1 -0.87)"/>
    <path d="M39,555v20H58c10.5,0,19,.3,19,.7a15.72,15.72,0,0,1-1.5,3.3q-2.85,4.8,0,3.6c1.3-.5,1.5,2.6,1.5,24.4v25H39v40h78V661.9l3,1.6c3.3,1.7,4.6,1.6,4.2-.3-.4-1.7,123.8-1.8,127.1-.1s3.7,2.8,3.7,8.6c0,3.2.4,5.3,1.1,5.3s1-2,.7-6c-.7-10.3,5.5-9.5-68.4-9.8-56.5-.2-64.5-.4-64-1.7.7-1.9-.7-1.9-4.4,0l-3,1.6V632H79V607c0-21.8.2-24.9,1.5-24.4q2.85,1.2,0-3.6a15.72,15.72,0,0,1-1.5-3.3c0-.4,8.6-.7,19-.7h19V535H39Zm77,0v19l-37.7-.2-37.8-.3-.3-18.8L40,536h76Zm0,97v19l-37.7-.2-37.8-.3-.3-18.8L40,633h76Z" transform="translate(-1 -0.87)"/>
    <path d="M45,548.6c0,2.7.4,4.3,1,3.9a2.52,2.52,0,0,0,1-2.1,1.5,1.5,0,0,1,3,0,2.82,2.82,0,0,0,1,2.1c.6.4,1-1.2,1-3.9,0-4.6,0-4.6-3.5-4.6S45,544,45,548.6Zm5-2.6c0,.5-.7,1-1.5,1s-1.5-.5-1.5-1,.7-1,1.5-1S50,545.4,50,546Z" transform="translate(-1 -0.87)"/>
    <path d="M59.7,544.6c-.7.7.2,6.5,1.2,7.7.4.4.7-1.1.6-3.3C61.4,545,60.8,543.5,59.7,544.6Z" transform="translate(-1 -0.87)"/>
    <path d="M83,548.5c0,4.3.1,4.5,3,4.5,1.7,0,3-.5,3-1s-1.1-1-2.5-1-2.5-.5-2.5-1,.9-1,1.9-1a3.5,3.5,0,0,0,2.6-1c.4-.6-.5-1-1.9-1-3.5,0-3.3-1.8.2-2.3,2.5-.4,2.5-.4-.5-.6C83,544,83,544.1,83,548.5Z" transform="translate(-1 -0.87)"/>
    <path d="M99.6,545.8c-.4.3-2.7.5-5.1.3-4.4-.2-4.5-.2-4.5,2.8,0,1.7.5,3.1,1,3.1s1-.9,1-1.9a3.5,3.5,0,0,1,1-2.6c.6-.4,1,.5,1,1.9s.5,2.6,1,2.6,1-.9,1-1.9c0-3.1,1.8-3.4,2.2-.4.2,2,.9,2.8,2.3,2.8s2.1-.8,2.3-3.1C103.1,546.4,101.1,544.2,99.6,545.8Zm2.4,3.8c0,1.6-1.6,1.9-2.5.4-.8-1.3.4-3.2,1.6-2.5A2.93,2.93,0,0,1,102,549.6Z" transform="translate(-1 -0.87)"/>
    <path d="M53.5,547.1c-1.1,1.7.4,5.9,2.1,5.9s3.4-3.8,2.7-5.8C57.7,545.7,54.4,545.6,53.5,547.1Z" transform="translate(-1 -0.87)"/>
    <path d="M63.4,549c.1,2.9.5,3.5,2.4,3.6s2.2-.4,2.2-3.2c0-1.9-.4-3.4-.8-3.4s-.8,1-.8,2.1c.1,3.3-2.2,3.4-2.7.2C63.3,546.1,63.2,546.3,63.4,549Z" transform="translate(-1 -0.87)"/>
    <path d="M69,549c0,1.6.5,3,1,3s1-.9,1-1.9a3.5,3.5,0,0,1,1-2.6c.6-.4,1,.5,1,1.9s.5,2.6,1,2.6,1-1.2,1-2.6.4-2.3,1-1.9,1,1.5,1,2.6.5,1.9,1,1.9c1.1,0,1.3-2,.4-4.4-.4-1.1-1.9-1.6-5-1.6C69.2,546,69,546.1,69,549Z" transform="translate(-1 -0.87)"/>
    <path d="M104,549.7c0,4.1,1.3,3.5,2.4-1,.5-2,.3-2.7-.9-2.7S104,547.1,104,549.7Z" transform="translate(-1 -0.87)"/>
    <path d="M55,561.4c0,4.3,1.2,6.1,2.3,3.3q.6-1.5.6,0c.2,2.1,1.9,1.5,2.7-1l.8-2.2.7,2.5c.5,1.9.7,1.4.8-2.3.1-5-1.4-6.4-2.5-2.2-.8,3.1-2.2,3.3-2.6.3a3.85,3.85,0,0,0-1.5-2.6C55.4,557,55,558.2,55,561.4Z" transform="translate(-1 -0.87)"/>
    <path d="M65.1,560.4c-2.7,3.3,1.4,7.6,4.3,4.6.8-.9.6-1.1-1.1-.5-1.4.4-2.3.2-2.3-.4s.9-1.1,2.1-1.1c1.4,0,1.9-.5,1.7-1.7C69.4,559,66.7,558.5,65.1,560.4Zm3.6,1.2a2,2,0,0,1-1.9.1c-.8-.3-.5-.6.6-.6S69.1,561.3,68.7,561.6Z" transform="translate(-1 -0.87)"/>
    <path d="M71.3,560.5a3.25,3.25,0,0,0,1.3,3.1c1.7,1.4,1.7,1.5.2,1-1-.3-1.8-.2-1.8.3s2.3.9,5,.9c4.2,0,5-.3,5-1.9a1.89,1.89,0,0,0-1.7-2c-1.5,0-1.5-.2.2-.9,1.9-.7,1.9-.8.2-1.5a2.68,2.68,0,0,0-3,.4c-.9.9-.6,1.6,1.3,3.1,3.3,2.5,2,2.5-2.7,0-2.1-1.1-3-2-2-2s1.7-.5,1.7-1C75,558.4,72,558.8,71.3,560.5Z" transform="translate(-1 -0.87)"/>
    <path d="M82.4,560.1c-.5.9-.2,1,.9.6.9-.3,1.9-.2,2.2.2s-.4,1.1-1.5,1.4c-3.2.8-2.5,3.7.9,3.7,2.7,0,2.8-.2,2.2-3.2C86.4,559.4,83.8,557.9,82.4,560.1Zm3.1,3.9a2.34,2.34,0,0,1-1.6,1c-.6,0-.7-.5-.4-1a2,2,0,0,1,1.6-1C85.7,563,85.8,563.4,85.5,564Z" transform="translate(-1 -0.87)"/>
    <path d="M88.6,561.5c-.8,3.1-.1,4.5,2.2,4.6,1.4,0,1.3.2-.3.9-1.9.7-1.9.8-.1,1.5,2.4,1,3.6-.9,3.6-5.8,0-3.2-.3-3.7-2.4-3.7C89.9,559,89,559.7,88.6,561.5Zm3.7.1c.8.8-.3,3.4-1.4,3.4-.5,0-.9-.9-.9-2C90,561.1,91.1,560.4,92.3,561.6Z" transform="translate(-1 -0.87)"/>
    <path d="M95.4,560.4c-1.5,3.9,2.3,7.4,5,4.6.8-1,.6-1.2-1.1-.7-1.3.3-2.3.1-2.3-.4s.9-.9,2.1-.9c1.5,0,1.9-.4,1.5-1.6a15.63,15.63,0,0,1-.6-2C100,558.3,95.9,559.2,95.4,560.4Z" transform="translate(-1 -0.87)"/>
    <path d="M71,651.5c0,2.5.4,4.5.9,4.5s.6-1.2.4-2.8l-.4-2.7,2.1,2.7c3,3.8,4,3.5,4-1.2,0-4.3-1.6-5.5-2.2-1.8-.4,2.2-.5,2.2-1.8-.5C72.1,645.8,71,646.4,71,651.5Z" transform="translate(-1 -0.87)"/>
    <path d="M79.7,649.7c-1.2,1.2-.7,6.1.6,6.6,2.8,1.1,5.1-2.5,3.5-5.6C82.9,649,80.9,648.4,79.7,649.7ZM83,653c0,2.1-1.5,2.7-2.5,1a2,2,0,0,1,1.6-3C82.6,651,83,651.9,83,653Z" transform="translate(-1 -0.87)"/>
    <path d="M1497.7,922.1c-.5,2-.7,17.5-.5,34.4l.3,30.7,2.8,2.4c2.8,2.4,3,2.4,25.4,2.4,19.6,0,22.4.2,21.9,1.5-.7,1.9.7,1.9,4.4,0l3-1.6V1012h76V972h-76v19.1l-3-1.6c-3.7-1.9-5.4-1.9-4.6,0,.5,1.3-2.3,1.5-21.3,1.5-20,0-22.1-.2-24.2-1.9l-2.4-1.9-.5-34.4C1498.7,931,1498.2,919.8,1497.7,922.1Zm132.1,69.4-.3,18.5-36.8.3-36.7.2V973h74Z" transform="translate(-1 -0.87)"/>
    <path d="M1576.9,987.2c0,.2-.3,2.2-.5,4.5-.4,4.1-.3,4.3,2.4,4.3a6.89,6.89,0,0,0,4.1-1.3c1.1-1,1.4-1,1.8,0,.6,1.6,3.9,1.7,4.9.2.4-.8,0-.9-1.5-.4-1.2.4-2.1.2-2.1-.4s.9-1.1,2-1.1c2.4,0,2.7-2.8.3-3.7a2.24,2.24,0,0,0-2.7.9c-.9,1.5-1.1,1.4-2.1-.5a5,5,0,0,0-3.8-2.5C1578.2,987,1577,987,1576.9,987.2Zm4.9,4.7c-.4,3.8-3.8,4.2-3.8.3,0-3.4.7-4.3,2.7-3.5C1581.5,989,1582,990.3,1581.8,991.9Z" transform="translate(-1 -0.87)"/>
    <path d="M1591,991.3c0,4.3.1,4.4,3.5,4.5,1.9.1,3.7-.3,4.1-.9s-.1-.9-1.5-.4c-1.2.4-2.1.2-2.1-.4s.9-1.1,2.1-1.1c1.4,0,1.9-.5,1.7-1.8-.5-2.5-4-2.1-5.6.8-1.4,2.5-1.4,2.5-.8-.7.3-1.8.1-3.5-.4-3.8S1591,988.7,1591,991.3Z" transform="translate(-1 -0.87)"/>
    <path d="M1599.8,988.5c-.7.7.4,7.5,1.2,7.5,1,0,1-6.9,0-7.5A1.27,1.27,0,0,0,1599.8,988.5Z" transform="translate(-1 -0.87)"/>
    <path d="M1603.4,991.4c-.3,1.4-.3,3,.1,3.5.8,1.4,4.2,1.4,5.1,0,.4-.8,0-.9-1.5-.4-1.2.4-2.1.2-2.1-.4s.9-1.1,2.1-1.1c2.8,0,2.1-3.4-.8-3.8C1604.6,988.9,1603.9,989.5,1603.4,991.4Z" transform="translate(-1 -0.87)"/>
  </g>
</svg>
