<?xml version="1.0" encoding="UTF-8" standalone="no"?>
<!-- Generator: Adobe Illustrator 18.0.0, SVG Export Plug-In . SVG Version: 6.00 Build 0)  -->

<svg
   xmlns:dc="http://purl.org/dc/elements/1.1/"
   xmlns:cc="http://creativecommons.org/ns#"
   xmlns:rdf="http://www.w3.org/1999/02/22-rdf-syntax-ns#"
   xmlns:svg="http://www.w3.org/2000/svg"
   xmlns="http://www.w3.org/2000/svg"
   xmlns:sodipodi="http://sodipodi.sourceforge.net/DTD/sodipodi-0.dtd"
   xmlns:inkscape="http://www.inkscape.org/namespaces/inkscape"
   version="1.1"
   id="Capa_1"
   x="0px"
   y="0px"
   viewBox="0 0 78.396 78.396"
   style="enable-background:new 0 0 78.396 78.396;"
   xml:space="preserve"
   sodipodi:docname="search.svg"
   inkscape:version="0.92.5 (2060ec1f9f, 2020-04-08)"><metadata
   id="metadata43"><rdf:RDF><cc:Work
       rdf:about=""><dc:format>image/svg+xml</dc:format><dc:type
         rdf:resource="http://purl.org/dc/dcmitype/StillImage" /><dc:title></dc:title></cc:Work></rdf:RDF></metadata><defs
   id="defs41" /><sodipodi:namedview
   pagecolor="#ffffff"
   bordercolor="#666666"
   borderopacity="1"
   objecttolerance="10"
   gridtolerance="10"
   guidetolerance="10"
   inkscape:pageopacity="0"
   inkscape:pageshadow="2"
   inkscape:window-width="1920"
   inkscape:window-height="1001"
   id="namedview39"
   showgrid="false"
   inkscape:zoom="3.0103575"
   inkscape:cx="39.198002"
   inkscape:cy="39.198002"
   inkscape:window-x="-9"
   inkscape:window-y="-9"
   inkscape:window-maximized="1"
   inkscape:current-layer="Capa_1" />

<g
   id="g8">
</g>
<g
   id="g10">
</g>
<g
   id="g12">
</g>
<g
   id="g14">
</g>
<g
   id="g16">
</g>
<g
   id="g18">
</g>
<g
   id="g20">
</g>
<g
   id="g22">
</g>
<g
   id="g24">
</g>
<g
   id="g26">
</g>
<g
   id="g28">
</g>
<g
   id="g30">
</g>
<g
   id="g32">
</g>
<g
   id="g34">
</g>
<g
   id="g36">
</g>
<path
   style="fill:#ff0000;fill-opacity:1;stroke-width:0.33218646"
   d=""
   id="path162"
   inkscape:connector-curvature="0" /><path
   style="fill:#ff0000;fill-opacity:1;stroke-width:0.33218646"
   d=""
   id="path166"
   inkscape:connector-curvature="0" /><path
   style="fill:#ffffff;fill-opacity:1;stroke-width:0.9942407"
   d="M 27.884765,0.90523199 C 17.188095,1.1140112 6.6214148,7.5626621 2.1503848,17.648196 c -0.112,0.252074 -0.11769,0.491142 -0.0547,0.706633 -0.013,0.04155 -0.0389,0.07033 -0.0469,0.117775 -1.09899996,6.064539 -1.94241999,11.762847 0.14258,17.648461 0.654,2.40407 1.39504,4.750493 2.62304,6.602973 13.5390002,20.41876 38.2246302,10.528546 39.7656302,9.807919 4.584,6.588448 10.035437,12.523953 15.898437,18.021079 3.089,2.898332 7.601969,10.97167 12.542969,6.543119 4.553,-4.079593 5.22875,-6.579462 0.84375,-10.753956 -7.527,-7.163766 -14.559907,-14.973866 -21.628907,-22.577519 2.675,-4.611424 3.707827,-9.953539 3.798829,-15.684947 C 56.179111,19.10402 50.889317,11.407393 43.943315,6.087212 39.126695,2.397982 33.487735,0.79587164 27.884725,0.90523199 Z M 27.646485,11.5781 c 9.02145,0.01925 18.74617,6.024998 18.65429,16.642575 -0.074,8.463658 -4.90409,17.283526 -14.74609,17.943854 -5.342,0.357841 -10.42614,-0.271559 -14.86914,-3.471381 -3.33,-2.39715 -6.38522,-7.573605 -6.57422,-11.796533 -0.4770001,-10.597869 5.25414,-18.314059 15.74414,-19.24129 0.59206,-0.05231 1.18959,-0.07852 1.79102,-0.07723 z m 20.09375,39.411229 c 0.715,1.010266 1.45375,2.009099 2.21875,2.988718 -0.962,-0.882745 -1.81075,-1.841053 -2.21875,-2.988718 z M 68.326168,66.06032 c 0.662999,0.623751 1.389546,1.284314 2.060547,1.967373 0.668,0.919321 1.329094,1.840959 1.996094,2.745443 0.033,0.04546 0.06942,0.0831 0.107422,0.119706 0.013,0.03459 0.02897,0.06771 0.04297,0.102327 C 70.838202,69.666602 69.57717,67.829762 68.32617,66.06032 Z"
   id="rect184"
   inkscape:connector-curvature="0"
   sodipodi:nodetypes="sccccccccccccsscccccssccccccccccc" /><g
   id="g180"
   transform="translate(-151.14484,-52.153273)"
   style="fill:#ff00ff"><g
     style="fill:#ff00ff"
     transform="translate(135.19989,61.454494)"
     id="g6">
	
	
</g></g></svg>